<svg width="97" height="13" viewBox="0 0 97 13" fill="none" xmlns="http://www.w3.org/2000/svg">
<path d="M0.187012 10V0.687988H1.4502V4.83936H6.47754V0.687988H7.73438V10H6.47754V5.75977H1.4502V10H0.187012ZM9.26416 6.57227C9.26416 6.111 9.33398 5.68148 9.47363 5.28369C9.61751 4.8859 9.82064 4.54102 10.083 4.24902C10.3454 3.95703 10.667 3.72852 11.0479 3.56348C11.4287 3.39421 11.8582 3.30957 12.3364 3.30957C12.73 3.30957 13.0939 3.37728 13.4282 3.5127C13.7668 3.64388 14.0588 3.83431 14.3042 4.08398C14.5496 4.33366 14.7401 4.64258 14.8755 5.01074C15.0151 5.37467 15.085 5.78939 15.085 6.25488C15.085 6.43685 15.0659 6.55957 15.0278 6.62305C14.9897 6.68229 14.9157 6.71191 14.8057 6.71191H10.4067C10.4152 7.12663 10.4702 7.48844 10.5718 7.79736C10.6776 8.10628 10.8215 8.36442 11.0034 8.57178C11.1854 8.7749 11.4012 8.92725 11.6509 9.02881C11.9048 9.13037 12.1883 9.18115 12.5015 9.18115C12.7935 9.18115 13.0431 9.1473 13.2505 9.07959C13.4621 9.01188 13.644 8.93994 13.7964 8.86377C13.9487 8.78337 14.0757 8.71143 14.1772 8.64795C14.2788 8.58024 14.3656 8.54639 14.4375 8.54639C14.5348 8.54639 14.6089 8.58236 14.6597 8.6543L14.9834 9.07959C14.8395 9.25309 14.6681 9.40332 14.4692 9.53027C14.2703 9.65723 14.0566 9.76302 13.8281 9.84766C13.6038 9.92806 13.369 9.9873 13.1235 10.0254C12.8823 10.0677 12.6432 10.0889 12.4062 10.0889C11.9492 10.0889 11.5282 10.0127 11.1431 9.86035C10.7622 9.70801 10.4321 9.48372 10.1528 9.1875C9.87354 8.88704 9.6556 8.51888 9.49902 8.08301C9.34245 7.6429 9.26416 7.13932 9.26416 6.57227ZM10.4448 5.98828H14.0503C14.0503 5.72168 14.0122 5.47624 13.936 5.25195C13.8599 5.02767 13.7477 4.83512 13.5996 4.67432C13.4557 4.50928 13.278 4.38232 13.0664 4.29346C12.859 4.20459 12.6242 4.16016 12.3618 4.16016C11.8032 4.16016 11.3631 4.32308 11.0415 4.64893C10.7241 4.97054 10.5252 5.41699 10.4448 5.98828ZM16.5068 10V3.41748H18.9189C19.3252 3.41748 19.6743 3.4598 19.9663 3.54443C20.2583 3.62484 20.4974 3.73486 20.6836 3.87451C20.8698 4.01416 21.0052 4.1792 21.0898 4.36963C21.1787 4.56006 21.2231 4.76318 21.2231 4.979C21.2231 5.12288 21.202 5.27311 21.1597 5.42969C21.1216 5.58626 21.0539 5.73649 20.9565 5.88037C20.8592 6.02425 20.7259 6.15332 20.5566 6.26758C20.3916 6.38184 20.1842 6.4707 19.9346 6.53418C20.4339 6.61882 20.8211 6.79443 21.0962 7.06104C21.3713 7.3234 21.5088 7.66829 21.5088 8.0957C21.5088 8.41732 21.4432 8.69661 21.312 8.93359C21.1851 9.16634 21.0094 9.36312 20.7852 9.52393C20.5651 9.68473 20.3049 9.80534 20.0044 9.88574C19.7082 9.96191 19.3887 10 19.0459 10H16.5068ZM17.6177 9.1875H19.0396C19.4712 9.1875 19.8118 9.08805 20.0615 8.88916C20.3154 8.68604 20.4424 8.40885 20.4424 8.05762C20.4424 7.90104 20.417 7.75928 20.3662 7.63232C20.3197 7.50537 20.2414 7.39323 20.1313 7.2959C20.0256 7.19857 19.8817 7.12451 19.6997 7.07373C19.522 7.02295 19.304 6.99756 19.0459 6.99756H17.6177V9.1875ZM17.6177 6.26123H18.8872C19.0776 6.26123 19.2533 6.23584 19.4141 6.18506C19.5791 6.13005 19.7188 6.05387 19.833 5.95654C19.9515 5.85921 20.0425 5.74284 20.106 5.60742C20.1737 5.46777 20.2075 5.31543 20.2075 5.15039C20.2075 5.02767 20.1864 4.90918 20.144 4.79492C20.1017 4.68066 20.0277 4.5791 19.9219 4.49023C19.8161 4.40137 19.6785 4.33154 19.5093 4.28076C19.3442 4.22575 19.1369 4.19824 18.8872 4.19824H17.6177V6.26123ZM22.5879 6.70557C22.5879 6.21468 22.6556 5.76188 22.791 5.34717C22.9307 4.93245 23.1296 4.57487 23.3877 4.27441C23.6501 3.96973 23.9738 3.73275 24.3589 3.56348C24.744 3.39421 25.1841 3.30957 25.6792 3.30957C26.1447 3.30957 26.5531 3.38574 26.9043 3.53809C27.2598 3.6862 27.5729 3.89567 27.8438 4.1665L27.5391 4.58545C27.5052 4.632 27.4714 4.67008 27.4375 4.69971C27.4036 4.7251 27.355 4.73779 27.2915 4.73779C27.228 4.73779 27.1561 4.71029 27.0757 4.65527C26.9995 4.60026 26.9043 4.54102 26.79 4.47754C26.6758 4.40983 26.534 4.35059 26.3647 4.2998C26.1997 4.24479 25.9966 4.21729 25.7554 4.21729C25.4295 4.21729 25.1418 4.27441 24.8921 4.38867C24.6466 4.50293 24.4393 4.66797 24.27 4.88379C24.105 5.09961 23.9801 5.36198 23.8955 5.6709C23.8109 5.97982 23.7686 6.32471 23.7686 6.70557C23.7686 7.10335 23.813 7.45671 23.9019 7.76562C23.995 8.07454 24.124 8.3348 24.2891 8.54639C24.4583 8.75798 24.6615 8.91878 24.8984 9.02881C25.1354 9.13883 25.3999 9.19385 25.6919 9.19385C25.9754 9.19385 26.2082 9.15999 26.3901 9.09229C26.5721 9.02458 26.7223 8.95052 26.8408 8.87012C26.9593 8.78548 27.0588 8.71143 27.1392 8.64795C27.2196 8.58024 27.3 8.54639 27.3804 8.54639C27.4777 8.54639 27.5518 8.58236 27.6025 8.6543L27.9263 9.07959C27.7824 9.25732 27.6195 9.40967 27.4375 9.53662C27.2555 9.65934 27.0588 9.76302 26.8472 9.84766C26.6398 9.93229 26.4198 9.99365 26.187 10.0317C25.9585 10.0698 25.7257 10.0889 25.4888 10.0889C25.0783 10.0889 24.6953 10.0148 24.3398 9.8667C23.9886 9.71436 23.6818 9.4943 23.4194 9.20654C23.1613 8.91455 22.9582 8.55908 22.8101 8.14014C22.6619 7.72119 22.5879 7.243 22.5879 6.70557ZM29.1641 10.0063V3.41748H30.332V6.26123H30.9541C31.3011 6.26123 31.5719 6.11523 31.7666 5.82324L33.1631 3.74121C33.2223 3.64388 33.3027 3.56559 33.4043 3.50635C33.5059 3.4471 33.6117 3.41748 33.7217 3.41748H34.6294L32.9155 5.9248C32.8097 6.08561 32.6997 6.2168 32.5854 6.31836C32.4754 6.41992 32.3379 6.49821 32.1729 6.55322C32.3802 6.60824 32.5558 6.6971 32.6997 6.81982C32.8436 6.93831 32.9727 7.09066 33.0869 7.27686L34.8135 10H34.0073C33.8 10 33.6392 9.96615 33.5249 9.89844C33.4149 9.8265 33.3175 9.72705 33.2329 9.6001L31.957 7.5498C31.7539 7.21126 31.4471 7.04199 31.0366 7.04199H30.332V10.0063H29.1641ZM35.8926 10.0063V3.42383H37.0605V7.89258C37.0605 7.97298 37.0563 8.06396 37.0479 8.16553C37.0394 8.26286 37.0288 8.36019 37.0161 8.45752C37.05 8.37288 37.0859 8.29671 37.124 8.229C37.1663 8.15706 37.2065 8.09147 37.2446 8.03223C37.2489 8.02376 37.2975 7.95605 37.3906 7.8291C37.488 7.69792 37.6107 7.53076 37.7588 7.32764C37.9111 7.12028 38.0825 6.88753 38.2729 6.62939C38.4634 6.37126 38.6559 6.10889 38.8506 5.84229C39.3118 5.21598 39.8366 4.50505 40.4248 3.70947C40.4714 3.64176 40.5306 3.57617 40.6025 3.5127C40.6787 3.44922 40.7612 3.41748 40.8501 3.41748H41.542V10H40.3867V5.5249C40.3867 5.4445 40.391 5.35563 40.3994 5.2583C40.4079 5.15674 40.4185 5.05518 40.4312 4.95361C40.3931 5.03825 40.3529 5.11865 40.3105 5.19482C40.2682 5.26676 40.228 5.33236 40.1899 5.3916C40.1815 5.40007 40.1307 5.46989 40.0376 5.60107C39.9445 5.72803 39.8218 5.89518 39.6694 6.10254C39.5171 6.30566 39.3457 6.5363 39.1553 6.79443C38.9648 7.05257 38.7723 7.31494 38.5776 7.58154C38.1164 8.20785 37.5959 8.91878 37.0161 9.71436C36.9696 9.78206 36.9082 9.84766 36.832 9.91113C36.7601 9.97461 36.6818 10.0063 36.5972 10.0063H35.8926ZM43.3701 10.0063V3.42383H44.5381V7.89258C44.5381 7.97298 44.5339 8.06396 44.5254 8.16553C44.5169 8.26286 44.5063 8.36019 44.4937 8.45752C44.5275 8.37288 44.5635 8.29671 44.6016 8.229C44.6439 8.15706 44.6841 8.09147 44.7222 8.03223C44.7264 8.02376 44.7751 7.95605 44.8682 7.8291C44.9655 7.69792 45.0882 7.53076 45.2363 7.32764C45.3887 7.12028 45.5601 6.88753 45.7505 6.62939C45.9409 6.37126 46.1335 6.10889 46.3281 5.84229C46.7894 5.21598 47.3141 4.50505 47.9023 3.70947C47.9489 3.64176 48.0081 3.57617 48.0801 3.5127C48.1562 3.44922 48.2388 3.41748 48.3276 3.41748H49.0195V10H47.8643V5.5249C47.8643 5.4445 47.8685 5.35563 47.877 5.2583C47.8854 5.15674 47.896 5.05518 47.9087 4.95361C47.8706 5.03825 47.8304 5.11865 47.7881 5.19482C47.7458 5.26676 47.7056 5.33236 47.6675 5.3916C47.659 5.40007 47.6082 5.46989 47.5151 5.60107C47.422 5.72803 47.2993 5.89518 47.147 6.10254C46.9946 6.30566 46.8232 6.5363 46.6328 6.79443C46.4424 7.05257 46.2498 7.31494 46.0552 7.58154C45.5939 8.20785 45.0734 8.91878 44.4937 9.71436C44.4471 9.78206 44.3857 9.84766 44.3096 9.91113C44.2376 9.97461 44.1593 10.0063 44.0747 10.0063H43.3701ZM44.3794 1.03711C44.3794 0.952474 44.4006 0.874186 44.4429 0.802246C44.4852 0.726074 44.5487 0.687988 44.6333 0.687988H45.3062C45.3062 0.895345 45.3231 1.07096 45.3569 1.21484C45.3908 1.35449 45.4458 1.47087 45.522 1.56396C45.5981 1.65283 45.6976 1.71842 45.8203 1.76074C45.943 1.80306 46.0933 1.82422 46.271 1.82422C46.4487 1.82422 46.5968 1.80306 46.7153 1.76074C46.8381 1.71842 46.9375 1.65283 47.0137 1.56396C47.0898 1.47087 47.1449 1.35449 47.1787 1.21484C47.2126 1.07096 47.2295 0.895345 47.2295 0.687988H47.9087C47.9891 0.687988 48.0505 0.723958 48.0928 0.795898C48.1393 0.867839 48.1626 0.948242 48.1626 1.03711C48.1626 1.25293 48.1182 1.44759 48.0293 1.62109C47.9447 1.7946 47.8198 1.94271 47.6548 2.06543C47.494 2.18815 47.2951 2.28337 47.0581 2.35107C46.8254 2.41455 46.563 2.44629 46.271 2.44629C45.9748 2.44629 45.7082 2.41455 45.4712 2.35107C45.2384 2.28337 45.0417 2.18815 44.8809 2.06543C44.7201 1.94271 44.5952 1.7946 44.5063 1.62109C44.4217 1.44759 44.3794 1.25293 44.3794 1.03711ZM54.1738 10V3.41748H59.6646V10H58.4966V4.2998H55.3418V10H54.1738ZM61.499 12.228V3.41748H62.1973C62.3623 3.41748 62.4639 3.49788 62.502 3.65869L62.5972 4.43311C62.8807 4.09033 63.2044 3.81527 63.5684 3.60791C63.9323 3.40055 64.3491 3.29688 64.8188 3.29688C65.1997 3.29688 65.5425 3.37093 65.8472 3.51904C66.1561 3.66292 66.4185 3.87663 66.6343 4.16016C66.8543 4.44368 67.0215 4.79704 67.1357 5.22021C67.2542 5.63916 67.3135 6.12158 67.3135 6.66748C67.3135 7.15413 67.2479 7.60693 67.1167 8.02588C66.9855 8.44059 66.7972 8.80029 66.5518 9.10498C66.3105 9.40967 66.0122 9.65088 65.6567 9.82861C65.3055 10.0021 64.9077 10.0889 64.4634 10.0889C64.0614 10.0889 63.7165 10.0233 63.4287 9.89209C63.141 9.75667 62.887 9.56413 62.667 9.31445V12.228H61.499ZM62.667 8.41309C62.8743 8.70085 63.105 8.90397 63.3589 9.02246C63.6128 9.13672 63.8942 9.19385 64.2031 9.19385C64.8167 9.19385 65.2886 8.97591 65.6187 8.54004C65.9487 8.09993 66.1138 7.47575 66.1138 6.66748C66.1138 6.24007 66.0757 5.87191 65.9995 5.56299C65.9276 5.25407 65.8197 5.00228 65.6758 4.80762C65.5319 4.60872 65.3542 4.46484 65.1426 4.37598C64.9352 4.28288 64.7004 4.23633 64.438 4.23633C64.0614 4.23633 63.7313 4.32308 63.4478 4.49658C63.1642 4.67008 62.904 4.91341 62.667 5.22656V8.41309ZM68.583 9.28271C68.583 9.16846 68.6021 9.06266 68.6401 8.96533C68.6825 8.868 68.7396 8.78337 68.8115 8.71143C68.8835 8.63525 68.9681 8.57601 69.0654 8.53369C69.167 8.48714 69.2749 8.46387 69.3892 8.46387C69.5034 8.46387 69.6092 8.48714 69.7065 8.53369C69.8039 8.57601 69.8885 8.63525 69.9604 8.71143C70.0366 8.78337 70.0959 8.87012 70.1382 8.97168C70.1847 9.06901 70.208 9.17269 70.208 9.28271C70.208 9.4012 70.1847 9.50911 70.1382 9.60645C70.0959 9.70378 70.0366 9.79053 69.9604 9.8667C69.8885 9.93864 69.8018 9.99365 69.7002 10.0317C69.6029 10.0741 69.4992 10.0952 69.3892 10.0952C69.2749 10.0952 69.167 10.0741 69.0654 10.0317C68.9681 9.99365 68.8835 9.93864 68.8115 9.8667C68.7396 9.79053 68.6825 9.70378 68.6401 9.60645C68.6021 9.50911 68.583 9.4012 68.583 9.28271ZM75.3242 3.06201L78.0981 0.668945H79.0439V9.11768H80.8721V10H75.8828V9.11768H77.876V2.76367C77.876 2.58171 77.8823 2.38916 77.895 2.18604L76.2383 3.60791C76.1833 3.65446 76.1261 3.68408 76.0669 3.69678C76.0119 3.70947 75.9611 3.71159 75.9146 3.70312C75.868 3.69466 75.8236 3.67773 75.7812 3.65234C75.7389 3.62272 75.7072 3.5931 75.686 3.56348L75.3242 3.06201ZM82.3574 7.67041L82.8589 7.46729C82.9901 7.41227 83.117 7.39746 83.2397 7.42285C83.3625 7.44824 83.4513 7.51807 83.5063 7.63232C83.5614 7.75505 83.6312 7.90104 83.7158 8.07031C83.8047 8.23958 83.9211 8.40251 84.0649 8.55908C84.2131 8.71566 84.4014 8.84896 84.6299 8.95898C84.8584 9.06478 85.1483 9.11768 85.4995 9.11768C85.8254 9.11768 86.1089 9.06478 86.3501 8.95898C86.5955 8.85319 86.7987 8.71566 86.9595 8.54639C87.1245 8.37712 87.2472 8.1888 87.3276 7.98145C87.4123 7.76986 87.4546 7.5625 87.4546 7.35938C87.4546 7.1097 87.4207 6.88118 87.353 6.67383C87.2896 6.46647 87.1689 6.28662 86.9912 6.13428C86.8135 5.98193 86.5701 5.86344 86.2612 5.77881C85.9523 5.68994 85.5545 5.64551 85.0679 5.64551V4.80762C85.4657 4.80339 85.8042 4.76107 86.0835 4.68066C86.3628 4.59603 86.5892 4.48177 86.7627 4.33789C86.9404 4.19401 87.0695 4.02262 87.1499 3.82373C87.2303 3.62484 87.2705 3.40479 87.2705 3.16357C87.2705 2.89697 87.2282 2.66423 87.1436 2.46533C87.0589 2.26221 86.9425 2.09717 86.7944 1.97021C86.6506 1.83903 86.4771 1.7417 86.2739 1.67822C86.0708 1.61051 85.8529 1.57666 85.6201 1.57666C85.3874 1.57666 85.1694 1.61263 84.9663 1.68457C84.7674 1.75228 84.5897 1.84749 84.4331 1.97021C84.2808 2.09294 84.1517 2.23893 84.0459 2.4082C83.9443 2.57747 83.8703 2.76367 83.8237 2.9668C83.7687 3.11914 83.6989 3.2207 83.6143 3.27148C83.5296 3.31803 83.4069 3.33073 83.2461 3.30957L82.6431 3.20801C82.7023 2.78483 82.8187 2.41032 82.9922 2.08447C83.1657 1.75439 83.3857 1.47933 83.6523 1.25928C83.9189 1.03499 84.2236 0.865723 84.5664 0.751465C84.9134 0.637207 85.2858 0.580078 85.6836 0.580078C86.0771 0.580078 86.4411 0.637207 86.7754 0.751465C87.1097 0.861491 87.3975 1.0223 87.6387 1.23389C87.8799 1.44124 88.0661 1.69303 88.1973 1.98926C88.3327 2.28125 88.4004 2.6071 88.4004 2.9668C88.4004 3.26302 88.3623 3.52751 88.2861 3.76025C88.2142 3.98877 88.1063 4.19189 87.9624 4.36963C87.8228 4.54313 87.6535 4.69124 87.4546 4.81396C87.2557 4.93669 87.0314 5.03402 86.7817 5.10596C87.3869 5.26676 87.8418 5.53548 88.1465 5.91211C88.4554 6.28874 88.6099 6.76058 88.6099 7.32764C88.6099 7.75505 88.5273 8.14014 88.3623 8.48291C88.2015 8.82568 87.9793 9.11768 87.6958 9.35889C87.4165 9.6001 87.0885 9.78418 86.7119 9.91113C86.3395 10.0381 85.9396 10.1016 85.5122 10.1016C85.0171 10.1016 84.5939 10.0402 84.2427 9.91748C83.8914 9.79476 83.5931 9.62549 83.3477 9.40967C83.1064 9.19385 82.9076 8.93783 82.751 8.6416C82.5986 8.34115 82.4674 8.01742 82.3574 7.67041ZM89.7271 5.34717C89.7271 4.53044 89.8138 3.82373 89.9873 3.22705C90.1608 2.63037 90.3999 2.13525 90.7046 1.7417C91.0093 1.34814 91.3647 1.05615 91.771 0.865723C92.1815 0.675293 92.6258 0.580078 93.104 0.580078C93.578 0.580078 94.0202 0.675293 94.4307 0.865723C94.8454 1.05615 95.203 1.34814 95.5034 1.7417C95.8081 2.13525 96.0472 2.63037 96.2207 3.22705C96.3984 3.82373 96.4873 4.53044 96.4873 5.34717C96.4873 6.1639 96.3984 6.87061 96.2207 7.46729C96.0472 8.05973 95.8081 8.55062 95.5034 8.93994C95.203 9.32926 94.8454 9.61914 94.4307 9.80957C94.0202 10 93.578 10.0952 93.104 10.0952C92.6258 10.0952 92.1815 10 91.771 9.80957C91.3647 9.61914 91.0093 9.32926 90.7046 8.93994C90.3999 8.55062 90.1608 8.05762 89.9873 7.46094C89.8138 6.86426 89.7271 6.15967 89.7271 5.34717ZM90.9268 5.34717C90.9268 6.05811 90.986 6.65479 91.1045 7.13721C91.223 7.6154 91.3817 8.0026 91.5806 8.29883C91.7795 8.59082 92.0101 8.80241 92.2725 8.93359C92.5391 9.06055 92.8162 9.12402 93.104 9.12402C93.3918 9.12402 93.6668 9.06055 93.9292 8.93359C94.1916 8.80241 94.4243 8.59082 94.6274 8.29883C94.8306 8.0026 94.9914 7.6154 95.1099 7.13721C95.2284 6.65479 95.2876 6.05811 95.2876 5.34717C95.2876 4.63623 95.2284 4.03955 95.1099 3.55713C94.9914 3.07471 94.8306 2.68538 94.6274 2.38916C94.4243 2.09294 94.1895 1.88135 93.9229 1.75439C93.6605 1.62744 93.3875 1.56396 93.104 1.56396C92.8162 1.56396 92.5391 1.62744 92.2725 1.75439C92.0101 1.88135 91.7795 2.09294 91.5806 2.38916C91.3817 2.68538 91.223 3.07471 91.1045 3.55713C90.986 4.03955 90.9268 4.63623 90.9268 5.34717Z" fill="black"/>
</svg>
