<svg width="100" height="12" viewBox="0 0 100 12" fill="none" xmlns="http://www.w3.org/2000/svg">
<path d="M0.545898 6.70557C0.545898 6.18929 0.617839 5.72168 0.761719 5.30273C0.909831 4.88379 1.1193 4.52832 1.39014 4.23633C1.6652 3.9401 1.99528 3.71159 2.38037 3.55078C2.76969 3.38997 3.20768 3.30957 3.69434 3.30957C4.17676 3.30957 4.61051 3.38997 4.99561 3.55078C5.3807 3.71159 5.70866 3.9401 5.97949 4.23633C6.25456 4.52832 6.46403 4.88379 6.60791 5.30273C6.75179 5.72168 6.82373 6.18929 6.82373 6.70557C6.82373 7.22607 6.75179 7.69368 6.60791 8.1084C6.46403 8.52311 6.25456 8.87858 5.97949 9.1748C5.70866 9.47103 5.37858 9.69743 4.98926 9.854C4.60417 10.0106 4.17253 10.0889 3.69434 10.0889C3.20768 10.0889 2.76969 10.0106 2.38037 9.854C1.99528 9.69743 1.6652 9.47103 1.39014 9.1748C1.1193 8.87858 0.909831 8.52311 0.761719 8.1084C0.617839 7.69368 0.545898 7.22607 0.545898 6.70557ZM1.73291 6.71191C1.73291 7.49056 1.89372 8.09782 2.21533 8.53369C2.54118 8.96956 3.03418 9.1875 3.69434 9.1875C4.34603 9.1875 4.83057 8.96956 5.14795 8.53369C5.46956 8.09782 5.63037 7.49056 5.63037 6.71191C5.63037 5.92904 5.46956 5.31966 5.14795 4.88379C4.82633 4.44368 4.3418 4.22363 3.69434 4.22363C3.36426 4.22363 3.0765 4.28076 2.83105 4.39502C2.58561 4.50505 2.38037 4.66585 2.21533 4.87744C2.05452 5.08903 1.93392 5.3514 1.85352 5.66455C1.77311 5.97347 1.73291 6.32259 1.73291 6.71191ZM8.29004 10V3.41748H8.95654C9.0835 3.41748 9.17025 3.44076 9.2168 3.4873C9.26335 3.53385 9.29508 3.61637 9.31201 3.73486L9.38184 4.73779C9.58919 4.28923 9.84521 3.93799 10.1499 3.68408C10.4588 3.42594 10.8312 3.29688 11.2671 3.29688C11.4067 3.29688 11.54 3.3138 11.667 3.34766C11.7982 3.37728 11.9124 3.42383 12.0098 3.4873L11.9272 4.35059C11.9019 4.46061 11.8363 4.51562 11.7305 4.51562C11.6712 4.51562 11.5824 4.50293 11.4639 4.47754C11.3454 4.44792 11.2142 4.43311 11.0703 4.43311C10.863 4.43311 10.6768 4.46484 10.5117 4.52832C10.3467 4.5918 10.1986 4.68278 10.0674 4.80127C9.94043 4.91976 9.82617 5.06576 9.72461 5.23926C9.62728 5.41276 9.53841 5.61377 9.45801 5.84229V10H8.29004ZM12.416 6.73096C12.416 6.2443 12.4816 5.79362 12.6128 5.37891C12.744 4.95996 12.9302 4.59603 13.1714 4.28711C13.4126 3.97819 13.7088 3.73698 14.0601 3.56348C14.4155 3.38574 14.8154 3.29688 15.2598 3.29688C15.6618 3.29688 16.0067 3.3667 16.2944 3.50635C16.5822 3.64176 16.8382 3.83219 17.0625 4.07764V0.427734H18.2178V10H17.5322C17.3672 10 17.2635 9.9196 17.2212 9.75879L17.1133 8.95898C16.8298 9.30176 16.5081 9.57682 16.1484 9.78418C15.7887 9.9873 15.374 10.0889 14.9043 10.0889C14.5277 10.0889 14.1849 10.0169 13.876 9.87305C13.5713 9.72917 13.3089 9.51758 13.0889 9.23828C12.873 8.95475 12.7059 8.60352 12.5874 8.18457C12.4731 7.76139 12.416 7.27686 12.416 6.73096ZM13.6094 6.73096C13.6094 7.15837 13.6453 7.52653 13.7173 7.83545C13.7935 8.14014 13.9035 8.39193 14.0474 8.59082C14.1912 8.78548 14.3669 8.92936 14.5742 9.02246C14.7858 9.11133 15.0228 9.15576 15.2852 9.15576C15.666 9.15576 15.9982 9.06901 16.2817 8.89551C16.5653 8.72201 16.8255 8.47656 17.0625 8.15918V4.979C16.8467 4.69124 16.6118 4.49023 16.3579 4.37598C16.1082 4.26172 15.8289 4.20459 15.52 4.20459C14.9106 4.20459 14.4388 4.42253 14.1045 4.8584C13.7744 5.29427 13.6094 5.91846 13.6094 6.73096ZM19.6714 6.57227C19.6714 6.111 19.7412 5.68148 19.8809 5.28369C20.0247 4.8859 20.2279 4.54102 20.4902 4.24902C20.7526 3.95703 21.0742 3.72852 21.4551 3.56348C21.8359 3.39421 22.2655 3.30957 22.7437 3.30957C23.1372 3.30957 23.5011 3.37728 23.8354 3.5127C24.174 3.64388 24.466 3.83431 24.7114 4.08398C24.9569 4.33366 25.1473 4.64258 25.2827 5.01074C25.4224 5.37467 25.4922 5.78939 25.4922 6.25488C25.4922 6.43685 25.4731 6.55957 25.4351 6.62305C25.397 6.68229 25.3229 6.71191 25.2129 6.71191H20.814C20.8224 7.12663 20.8774 7.48844 20.979 7.79736C21.0848 8.10628 21.2287 8.36442 21.4106 8.57178C21.5926 8.7749 21.8084 8.92725 22.0581 9.02881C22.312 9.13037 22.5955 9.18115 22.9087 9.18115C23.2007 9.18115 23.4504 9.1473 23.6577 9.07959C23.8693 9.01188 24.0513 8.93994 24.2036 8.86377C24.356 8.78337 24.4829 8.71143 24.5845 8.64795C24.686 8.58024 24.7728 8.54639 24.8447 8.54639C24.9421 8.54639 25.0161 8.58236 25.0669 8.6543L25.3906 9.07959C25.2467 9.25309 25.0754 9.40332 24.8765 9.53027C24.6776 9.65723 24.4639 9.76302 24.2354 9.84766C24.0111 9.92806 23.7762 9.9873 23.5308 10.0254C23.2896 10.0677 23.0505 10.0889 22.8135 10.0889C22.3564 10.0889 21.9354 10.0127 21.5503 9.86035C21.1694 9.70801 20.8394 9.48372 20.5601 9.1875C20.2808 8.88704 20.0628 8.51888 19.9062 8.08301C19.7497 7.6429 19.6714 7.13932 19.6714 6.57227ZM20.8521 5.98828H24.4575C24.4575 5.72168 24.4194 5.47624 24.3433 5.25195C24.2671 5.02767 24.1549 4.83512 24.0068 4.67432C23.863 4.50928 23.6852 4.38232 23.4736 4.29346C23.2663 4.20459 23.0314 4.16016 22.769 4.16016C22.2104 4.16016 21.7703 4.32308 21.4487 4.64893C21.1313 4.97054 20.9325 5.41699 20.8521 5.98828ZM26.9141 10V3.41748H27.5806C27.7075 3.41748 27.7943 3.44076 27.8408 3.4873C27.8874 3.53385 27.9191 3.61637 27.936 3.73486L28.0059 4.73779C28.2132 4.28923 28.4692 3.93799 28.7739 3.68408C29.0828 3.42594 29.4552 3.29688 29.8911 3.29688C30.0308 3.29688 30.1641 3.3138 30.291 3.34766C30.4222 3.37728 30.5365 3.42383 30.6338 3.4873L30.5513 4.35059C30.5259 4.46061 30.4603 4.51562 30.3545 4.51562C30.2952 4.51562 30.2064 4.50293 30.0879 4.47754C29.9694 4.44792 29.8382 4.43311 29.6943 4.43311C29.487 4.43311 29.3008 4.46484 29.1357 4.52832C28.9707 4.5918 28.8226 4.68278 28.6914 4.80127C28.5645 4.91976 28.4502 5.06576 28.3486 5.23926C28.2513 5.41276 28.1624 5.61377 28.082 5.84229V10H26.9141ZM31.4082 6.30566C31.4082 5.83171 31.4674 5.37679 31.5859 4.94092C31.7087 4.50505 31.8779 4.0988 32.0938 3.72217C32.3096 3.34131 32.5698 2.9943 32.8745 2.68115C33.1792 2.36377 33.5177 2.09505 33.8901 1.875C34.2625 1.65072 34.6624 1.47721 35.0898 1.35449C35.5215 1.22754 35.9722 1.16406 36.4419 1.16406C36.8397 1.16406 37.229 1.2085 37.6099 1.29736C37.995 1.382 38.3568 1.50895 38.6953 1.67822C39.0339 1.84749 39.3449 2.05697 39.6284 2.30664C39.9119 2.55632 40.1574 2.84408 40.3647 3.16992C40.5763 3.49154 40.7393 3.85124 40.8535 4.24902C40.9678 4.64258 41.0249 5.0721 41.0249 5.5376C41.0249 6.00732 40.9593 6.43896 40.8281 6.83252C40.6969 7.22607 40.515 7.56885 40.2822 7.86084C40.0495 8.15283 39.7744 8.38135 39.457 8.54639C39.1396 8.71143 38.799 8.79395 38.4351 8.79395C38.1007 8.79395 37.8278 8.71354 37.6162 8.55273C37.4046 8.39193 37.2692 8.14225 37.21 7.80371C36.9603 8.15072 36.6873 8.40039 36.3911 8.55273C36.0949 8.70085 35.7775 8.7749 35.439 8.7749C35.1851 8.7749 34.9608 8.73258 34.7661 8.64795C34.5757 8.55908 34.417 8.43636 34.29 8.27979C34.1631 8.11898 34.0679 7.93066 34.0044 7.71484C33.9451 7.49479 33.9155 7.25993 33.9155 7.01025C33.9155 6.64209 33.9854 6.27181 34.125 5.89941C34.2646 5.52279 34.472 5.18424 34.7471 4.88379C35.0264 4.5791 35.3713 4.33154 35.7817 4.14111C36.1965 3.95068 36.6746 3.85547 37.2163 3.85547C37.5083 3.85547 37.7643 3.87874 37.9844 3.92529C38.2044 3.97184 38.4118 4.03743 38.6064 4.12207L37.9971 6.4707C37.9124 6.80078 37.8701 7.0695 37.8701 7.27686C37.8743 7.47998 37.9082 7.64079 37.9717 7.75928C38.0352 7.87354 38.1219 7.95182 38.2319 7.99414C38.3462 8.03646 38.471 8.05762 38.6064 8.05762C38.818 8.05762 39.019 7.99626 39.2095 7.87354C39.3999 7.75081 39.5671 7.57943 39.7109 7.35938C39.859 7.13932 39.9754 6.87484 40.0601 6.56592C40.1447 6.257 40.187 5.91423 40.187 5.5376C40.187 4.94092 40.0918 4.41618 39.9014 3.96338C39.7109 3.51058 39.4465 3.13395 39.1079 2.8335C38.7736 2.53304 38.3779 2.30876 37.9209 2.16064C37.4639 2.0083 36.9709 1.93213 36.4419 1.93213C35.8621 1.93213 35.3184 2.04427 34.8105 2.26855C34.3027 2.48861 33.8605 2.79329 33.4839 3.18262C33.1073 3.57194 32.8089 4.0332 32.5889 4.56641C32.373 5.09961 32.2651 5.67936 32.2651 6.30566C32.2651 7.04199 32.3794 7.68945 32.6079 8.24805C32.8407 8.80664 33.158 9.27425 33.5601 9.65088C33.9621 10.0275 34.4339 10.311 34.9756 10.5015C35.5173 10.6919 36.097 10.7871 36.7148 10.7871C37.375 10.7871 37.9569 10.7152 38.4604 10.5713C38.964 10.4274 39.3999 10.2454 39.7681 10.0254C39.8527 9.97461 39.9289 9.9598 39.9966 9.98096C40.0643 9.99788 40.113 10.0444 40.1426 10.1206L40.3076 10.5522C39.8379 10.8654 39.3068 11.1108 38.7144 11.2886C38.1261 11.4663 37.4596 11.5552 36.7148 11.5552C35.9616 11.5552 35.2612 11.4346 34.6138 11.1934C33.9705 10.9564 33.4098 10.6136 32.9316 10.165C32.4577 9.71647 32.0853 9.16846 31.8145 8.521C31.5436 7.8693 31.4082 7.13086 31.4082 6.30566ZM34.8169 6.97852C34.8169 7.29167 34.8867 7.54346 35.0264 7.73389C35.1702 7.92008 35.384 8.01318 35.6675 8.01318C35.8029 8.01318 35.9383 7.99202 36.0737 7.94971C36.2091 7.90316 36.3403 7.82699 36.4673 7.72119C36.5985 7.61117 36.717 7.46305 36.8228 7.27686C36.9328 7.09066 37.0238 6.85579 37.0957 6.57227L37.5908 4.65527C37.4215 4.61719 37.2354 4.59814 37.0322 4.59814C36.7064 4.59814 36.408 4.66797 36.1372 4.80762C35.8664 4.94303 35.6336 5.12077 35.439 5.34082C35.2443 5.56087 35.092 5.81478 34.9819 6.10254C34.8719 6.38607 34.8169 6.67806 34.8169 6.97852ZM42.5293 10V0.427734H43.6973V4.36963C43.9723 4.04378 44.2834 3.78564 44.6304 3.59521C44.9816 3.40479 45.3857 3.30957 45.8428 3.30957C46.2279 3.30957 46.5749 3.38363 46.8838 3.53174C47.1927 3.67985 47.4551 3.89355 47.6709 4.17285C47.891 4.45215 48.0581 4.79069 48.1724 5.18848C48.2866 5.58626 48.3438 6.03483 48.3438 6.53418C48.3438 7.06738 48.2782 7.55404 48.147 7.99414C48.0158 8.43001 47.8275 8.80241 47.582 9.11133C47.3408 9.42025 47.0446 9.66146 46.6934 9.83496C46.3421 10.0042 45.9465 10.0889 45.5063 10.0889C45.0747 10.0889 44.7108 10.0085 44.4146 9.84766C44.1183 9.68685 43.8581 9.45622 43.6338 9.15576L43.5767 9.75244C43.5428 9.91748 43.4434 10 43.2783 10H42.5293ZM43.6973 8.41309C43.9089 8.70085 44.1416 8.90397 44.3955 9.02246C44.6494 9.13672 44.9266 9.19385 45.2271 9.19385C45.8449 9.19385 46.3188 8.97591 46.6489 8.54004C46.979 8.09993 47.144 7.44613 47.144 6.57861C47.144 5.77458 46.998 5.18424 46.7061 4.80762C46.4141 4.42676 45.9972 4.23633 45.4556 4.23633C45.0789 4.23633 44.7489 4.32308 44.4653 4.49658C44.186 4.67008 43.93 4.91341 43.6973 5.22656V8.41309ZM49.7402 7.61328V3.41748H50.8955V7.61328C50.8955 8.11263 51.0098 8.49984 51.2383 8.7749C51.4668 9.04574 51.8159 9.18115 52.2856 9.18115C52.6242 9.18115 52.9416 9.10075 53.2378 8.93994C53.5382 8.77913 53.8133 8.55697 54.063 8.27344V3.41748H55.2183V10H54.5327C54.3677 10 54.264 9.9196 54.2217 9.75879L54.1265 9.04785C53.8387 9.36523 53.5171 9.62126 53.1616 9.81592C52.8104 10.0063 52.4041 10.1016 51.9429 10.1016C51.5832 10.1016 51.2658 10.0423 50.9907 9.92383C50.7157 9.80534 50.485 9.63818 50.2988 9.42236C50.1126 9.20654 49.973 8.94417 49.8799 8.63525C49.7868 8.32633 49.7402 7.98568 49.7402 7.61328ZM57.0527 10V0.427734H58.2207V4.2998C58.5042 3.99935 58.8153 3.76025 59.1538 3.58252C59.4966 3.40055 59.8923 3.30957 60.3408 3.30957C60.7005 3.30957 61.0179 3.37093 61.293 3.49365C61.568 3.61214 61.7965 3.78141 61.9785 4.00146C62.1647 4.21729 62.3044 4.47965 62.3975 4.78857C62.4948 5.09326 62.5435 5.43392 62.5435 5.81055V10H61.3755V5.81055C61.3755 5.3112 61.2612 4.92399 61.0327 4.64893C60.8084 4.37386 60.4635 4.23633 59.998 4.23633C59.651 4.23633 59.3294 4.31885 59.0332 4.48389C58.737 4.64893 58.4661 4.87109 58.2207 5.15039V10H57.0527ZM63.9336 6.70557C63.9336 6.18929 64.0055 5.72168 64.1494 5.30273C64.2975 4.88379 64.507 4.52832 64.7778 4.23633C65.0529 3.9401 65.383 3.71159 65.7681 3.55078C66.1574 3.38997 66.5954 3.30957 67.082 3.30957C67.5645 3.30957 67.9982 3.38997 68.3833 3.55078C68.7684 3.71159 69.0964 3.9401 69.3672 4.23633C69.6423 4.52832 69.8517 4.88379 69.9956 5.30273C70.1395 5.72168 70.2114 6.18929 70.2114 6.70557C70.2114 7.22607 70.1395 7.69368 69.9956 8.1084C69.8517 8.52311 69.6423 8.87858 69.3672 9.1748C69.0964 9.47103 68.7663 9.69743 68.377 9.854C67.9919 10.0106 67.5602 10.0889 67.082 10.0889C66.5954 10.0889 66.1574 10.0106 65.7681 9.854C65.383 9.69743 65.0529 9.47103 64.7778 9.1748C64.507 8.87858 64.2975 8.52311 64.1494 8.1084C64.0055 7.69368 63.9336 7.22607 63.9336 6.70557ZM65.1206 6.71191C65.1206 7.49056 65.2814 8.09782 65.603 8.53369C65.9289 8.96956 66.4219 9.1875 67.082 9.1875C67.7337 9.1875 68.2183 8.96956 68.5356 8.53369C68.8573 8.09782 69.0181 7.49056 69.0181 6.71191C69.0181 5.92904 68.8573 5.31966 68.5356 4.88379C68.214 4.44368 67.7295 4.22363 67.082 4.22363C66.752 4.22363 66.4642 4.28076 66.2188 4.39502C65.9733 4.50505 65.7681 4.66585 65.603 4.87744C65.4422 5.08903 65.3216 5.3514 65.2412 5.66455C65.1608 5.97347 65.1206 6.32259 65.1206 6.71191ZM71.6777 10V3.41748H72.376C72.541 3.41748 72.6426 3.49788 72.6807 3.65869L72.7695 4.36963C73.0573 4.05225 73.3789 3.79622 73.7344 3.60156C74.0898 3.4069 74.5003 3.30957 74.9658 3.30957C75.3255 3.30957 75.6429 3.37093 75.918 3.49365C76.193 3.61214 76.4215 3.78141 76.6035 4.00146C76.7897 4.21729 76.9294 4.47965 77.0225 4.78857C77.1198 5.09326 77.1685 5.43392 77.1685 5.81055V10H76.0005V5.81055C76.0005 5.3112 75.8862 4.92399 75.6577 4.64893C75.4334 4.37386 75.0885 4.23633 74.623 4.23633C74.276 4.23633 73.9544 4.31885 73.6582 4.48389C73.362 4.64893 73.0911 4.87109 72.8457 5.15039V10H71.6777ZM78.5522 6.57227C78.5522 6.111 78.6221 5.68148 78.7617 5.28369C78.9056 4.8859 79.1087 4.54102 79.3711 4.24902C79.6335 3.95703 79.9551 3.72852 80.3359 3.56348C80.7168 3.39421 81.1463 3.30957 81.6245 3.30957C82.0181 3.30957 82.382 3.37728 82.7163 3.5127C83.0549 3.64388 83.3468 3.83431 83.5923 4.08398C83.8377 4.33366 84.0282 4.64258 84.1636 5.01074C84.3032 5.37467 84.373 5.78939 84.373 6.25488C84.373 6.43685 84.354 6.55957 84.3159 6.62305C84.2778 6.68229 84.2038 6.71191 84.0938 6.71191H79.6948C79.7033 7.12663 79.7583 7.48844 79.8599 7.79736C79.9657 8.10628 80.1095 8.36442 80.2915 8.57178C80.4735 8.7749 80.6893 8.92725 80.939 9.02881C81.1929 9.13037 81.4764 9.18115 81.7896 9.18115C82.0815 9.18115 82.3312 9.1473 82.5386 9.07959C82.7502 9.01188 82.9321 8.93994 83.0845 8.86377C83.2368 8.78337 83.3638 8.71143 83.4653 8.64795C83.5669 8.58024 83.6536 8.54639 83.7256 8.54639C83.8229 8.54639 83.897 8.58236 83.9478 8.6543L84.2715 9.07959C84.1276 9.25309 83.9562 9.40332 83.7573 9.53027C83.5584 9.65723 83.3447 9.76302 83.1162 9.84766C82.8919 9.92806 82.6571 9.9873 82.4116 10.0254C82.1704 10.0677 81.9313 10.0889 81.6943 10.0889C81.2373 10.0889 80.8162 10.0127 80.4312 9.86035C80.0503 9.70801 79.7202 9.48372 79.4409 9.1875C79.1616 8.88704 78.9437 8.51888 78.7871 8.08301C78.6305 7.6429 78.5522 7.13932 78.5522 6.57227ZM79.7329 5.98828H83.3384C83.3384 5.72168 83.3003 5.47624 83.2241 5.25195C83.1479 5.02767 83.0358 4.83512 82.8877 4.67432C82.7438 4.50928 82.5661 4.38232 82.3545 4.29346C82.1471 4.20459 81.9123 4.16016 81.6499 4.16016C81.0913 4.16016 80.6512 4.32308 80.3296 4.64893C80.0122 4.97054 79.8133 5.41699 79.7329 5.98828ZM85.6045 9.28271C85.6045 9.16846 85.6235 9.06266 85.6616 8.96533C85.7039 8.868 85.7611 8.78337 85.833 8.71143C85.9049 8.63525 85.9896 8.57601 86.0869 8.53369C86.1885 8.48714 86.2964 8.46387 86.4106 8.46387C86.5249 8.46387 86.6307 8.48714 86.728 8.53369C86.8254 8.57601 86.91 8.63525 86.9819 8.71143C87.0581 8.78337 87.1174 8.87012 87.1597 8.97168C87.2062 9.06901 87.2295 9.17269 87.2295 9.28271C87.2295 9.4012 87.2062 9.50911 87.1597 9.60645C87.1174 9.70378 87.0581 9.79053 86.9819 9.8667C86.91 9.93864 86.8232 9.99365 86.7217 10.0317C86.6243 10.0741 86.5207 10.0952 86.4106 10.0952C86.2964 10.0952 86.1885 10.0741 86.0869 10.0317C85.9896 9.99365 85.9049 9.93864 85.833 9.8667C85.7611 9.79053 85.7039 9.70378 85.6616 9.60645C85.6235 9.50911 85.6045 9.4012 85.6045 9.28271ZM88.8672 10V3.41748H89.5337C89.6606 3.41748 89.7474 3.44076 89.7939 3.4873C89.8405 3.53385 89.8722 3.61637 89.8892 3.73486L89.959 4.73779C90.1663 4.28923 90.4224 3.93799 90.7271 3.68408C91.036 3.42594 91.4084 3.29688 91.8442 3.29688C91.9839 3.29688 92.1172 3.3138 92.2441 3.34766C92.3753 3.37728 92.4896 3.42383 92.5869 3.4873L92.5044 4.35059C92.479 4.46061 92.4134 4.51562 92.3076 4.51562C92.2484 4.51562 92.1595 4.50293 92.041 4.47754C91.9225 4.44792 91.7913 4.43311 91.6475 4.43311C91.4401 4.43311 91.2539 4.46484 91.0889 4.52832C90.9238 4.5918 90.7757 4.68278 90.6445 4.80127C90.5176 4.91976 90.4033 5.06576 90.3018 5.23926C90.2044 5.41276 90.1156 5.61377 90.0352 5.84229V10H88.8672ZM93.5391 7.61328V3.41748H94.6943V7.61328C94.6943 8.11263 94.8086 8.49984 95.0371 8.7749C95.2656 9.04574 95.6147 9.18115 96.0845 9.18115C96.423 9.18115 96.7404 9.10075 97.0366 8.93994C97.3371 8.77913 97.6121 8.55697 97.8618 8.27344V3.41748H99.0171V10H98.3315C98.1665 10 98.0628 9.9196 98.0205 9.75879L97.9253 9.04785C97.6375 9.36523 97.3159 9.62126 96.9604 9.81592C96.6092 10.0063 96.203 10.1016 95.7417 10.1016C95.382 10.1016 95.0646 10.0423 94.7896 9.92383C94.5145 9.80534 94.2839 9.63818 94.0977 9.42236C93.9115 9.20654 93.7718 8.94417 93.6787 8.63525C93.5856 8.32633 93.5391 7.98568 93.5391 7.61328Z" fill="black"/>
</svg>
