<svg width="112" height="11" viewBox="0 0 112 11" fill="none" xmlns="http://www.w3.org/2000/svg">
<path d="M0.187012 10V0.687988H7.37256V10H6.10303V1.67822H1.4502V10H0.187012ZM9.37207 10V3.41748H10.54V6.03906H13.6948V3.41748H14.8628V10H13.6948V6.92139H10.54V10H9.37207ZM16.5957 6.59131V5.61377H19.8076V6.59131H16.5957ZM21.7944 10V0.687988H28.98V10H27.7104V1.67822H23.0576V10H21.7944ZM30.2178 4.2998V3.41748H36.4321V4.2998H33.8994V10H32.7441V4.2998H30.2178ZM41.0088 3.06201L43.7827 0.668945H44.7285V9.11768H46.5566V10H41.5674V9.11768H43.5605V2.76367C43.5605 2.58171 43.5669 2.38916 43.5796 2.18604L41.9229 3.60791C41.8678 3.65446 41.8107 3.68408 41.7515 3.69678C41.6965 3.70947 41.6457 3.71159 41.5991 3.70312C41.5526 3.69466 41.5081 3.67773 41.4658 3.65234C41.4235 3.62272 41.3918 3.5931 41.3706 3.56348L41.0088 3.06201ZM47.8706 5.34717C47.8706 4.53044 47.9574 3.82373 48.1309 3.22705C48.3044 2.63037 48.5435 2.13525 48.8481 1.7417C49.1528 1.34814 49.5083 1.05615 49.9146 0.865723C50.325 0.675293 50.7694 0.580078 51.2476 0.580078C51.7215 0.580078 52.1637 0.675293 52.5742 0.865723C52.9889 1.05615 53.3465 1.34814 53.647 1.7417C53.9517 2.13525 54.1908 2.63037 54.3643 3.22705C54.542 3.82373 54.6309 4.53044 54.6309 5.34717C54.6309 6.1639 54.542 6.87061 54.3643 7.46729C54.1908 8.05973 53.9517 8.55062 53.647 8.93994C53.3465 9.32926 52.9889 9.61914 52.5742 9.80957C52.1637 10 51.7215 10.0952 51.2476 10.0952C50.7694 10.0952 50.325 10 49.9146 9.80957C49.5083 9.61914 49.1528 9.32926 48.8481 8.93994C48.5435 8.55062 48.3044 8.05762 48.1309 7.46094C47.9574 6.86426 47.8706 6.15967 47.8706 5.34717ZM49.0703 5.34717C49.0703 6.05811 49.1296 6.65479 49.248 7.13721C49.3665 7.6154 49.5252 8.0026 49.7241 8.29883C49.923 8.59082 50.1536 8.80241 50.416 8.93359C50.6826 9.06055 50.9598 9.12402 51.2476 9.12402C51.5353 9.12402 51.8104 9.06055 52.0728 8.93359C52.3351 8.80241 52.5679 8.59082 52.771 8.29883C52.9741 8.0026 53.1349 7.6154 53.2534 7.13721C53.3719 6.65479 53.4312 6.05811 53.4312 5.34717C53.4312 4.63623 53.3719 4.03955 53.2534 3.55713C53.1349 3.07471 52.9741 2.68538 52.771 2.38916C52.5679 2.09294 52.333 1.88135 52.0664 1.75439C51.804 1.62744 51.5311 1.56396 51.2476 1.56396C50.9598 1.56396 50.6826 1.62744 50.416 1.75439C50.1536 1.88135 49.923 2.09294 49.7241 2.38916C49.5252 2.68538 49.3665 3.07471 49.248 3.55713C49.1296 4.03955 49.0703 4.63623 49.0703 5.34717ZM55.8369 9.28271C55.8369 9.16846 55.856 9.06266 55.894 8.96533C55.9364 8.868 55.9935 8.78337 56.0654 8.71143C56.1374 8.63525 56.222 8.57601 56.3193 8.53369C56.4209 8.48714 56.5288 8.46387 56.6431 8.46387C56.7573 8.46387 56.8631 8.48714 56.9604 8.53369C57.0578 8.57601 57.1424 8.63525 57.2144 8.71143C57.2905 8.78337 57.3498 8.87012 57.3921 8.97168C57.4386 9.06901 57.4619 9.17269 57.4619 9.28271C57.4619 9.4012 57.4386 9.50911 57.3921 9.60645C57.3498 9.70378 57.2905 9.79053 57.2144 9.8667C57.1424 9.93864 57.0557 9.99365 56.9541 10.0317C56.8568 10.0741 56.7531 10.0952 56.6431 10.0952C56.5288 10.0952 56.4209 10.0741 56.3193 10.0317C56.222 9.99365 56.1374 9.93864 56.0654 9.8667C55.9935 9.79053 55.9364 9.70378 55.894 9.60645C55.856 9.50911 55.8369 9.4012 55.8369 9.28271ZM55.8369 4.40771C55.8369 4.29346 55.856 4.18766 55.894 4.09033C55.9364 3.993 55.9935 3.90837 56.0654 3.83643C56.1374 3.76025 56.222 3.70101 56.3193 3.65869C56.4209 3.61214 56.5288 3.58887 56.6431 3.58887C56.7573 3.58887 56.8631 3.61214 56.9604 3.65869C57.0578 3.70101 57.1424 3.76025 57.2144 3.83643C57.2905 3.90837 57.3498 3.99512 57.3921 4.09668C57.4386 4.19401 57.4619 4.29769 57.4619 4.40771C57.4619 4.5262 57.4386 4.63411 57.3921 4.73145C57.3498 4.82878 57.2905 4.91553 57.2144 4.9917C57.1424 5.06364 57.0557 5.12077 56.9541 5.16309C56.8568 5.20117 56.7531 5.22021 56.6431 5.22021C56.5288 5.22021 56.4209 5.20117 56.3193 5.16309C56.222 5.12077 56.1374 5.06364 56.0654 4.9917C55.9935 4.91553 55.9364 4.82878 55.894 4.73145C55.856 4.63411 55.8369 4.5262 55.8369 4.40771ZM58.6616 5.34717C58.6616 4.53044 58.7484 3.82373 58.9219 3.22705C59.0954 2.63037 59.3345 2.13525 59.6392 1.7417C59.9438 1.34814 60.2993 1.05615 60.7056 0.865723C61.116 0.675293 61.5604 0.580078 62.0386 0.580078C62.5125 0.580078 62.9548 0.675293 63.3652 0.865723C63.7799 1.05615 64.1375 1.34814 64.438 1.7417C64.7427 2.13525 64.9818 2.63037 65.1553 3.22705C65.333 3.82373 65.4219 4.53044 65.4219 5.34717C65.4219 6.1639 65.333 6.87061 65.1553 7.46729C64.9818 8.05973 64.7427 8.55062 64.438 8.93994C64.1375 9.32926 63.7799 9.61914 63.3652 9.80957C62.9548 10 62.5125 10.0952 62.0386 10.0952C61.5604 10.0952 61.116 10 60.7056 9.80957C60.2993 9.61914 59.9438 9.32926 59.6392 8.93994C59.3345 8.55062 59.0954 8.05762 58.9219 7.46094C58.7484 6.86426 58.6616 6.15967 58.6616 5.34717ZM59.8613 5.34717C59.8613 6.05811 59.9206 6.65479 60.0391 7.13721C60.1576 7.6154 60.3162 8.0026 60.5151 8.29883C60.714 8.59082 60.9447 8.80241 61.207 8.93359C61.4736 9.06055 61.7508 9.12402 62.0386 9.12402C62.3263 9.12402 62.6014 9.06055 62.8638 8.93359C63.1261 8.80241 63.3589 8.59082 63.562 8.29883C63.7651 8.0026 63.9259 7.6154 64.0444 7.13721C64.1629 6.65479 64.2222 6.05811 64.2222 5.34717C64.2222 4.63623 64.1629 4.03955 64.0444 3.55713C63.9259 3.07471 63.7651 2.68538 63.562 2.38916C63.3589 2.09294 63.124 1.88135 62.8574 1.75439C62.5951 1.62744 62.3221 1.56396 62.0386 1.56396C61.7508 1.56396 61.4736 1.62744 61.207 1.75439C60.9447 1.88135 60.714 2.09294 60.5151 2.38916C60.3162 2.68538 60.1576 3.07471 60.0391 3.55713C59.9206 4.03955 59.8613 4.63623 59.8613 5.34717ZM66.2026 5.34717C66.2026 4.53044 66.2894 3.82373 66.4629 3.22705C66.6364 2.63037 66.8755 2.13525 67.1802 1.7417C67.4849 1.34814 67.8403 1.05615 68.2466 0.865723C68.6571 0.675293 69.1014 0.580078 69.5796 0.580078C70.0535 0.580078 70.4958 0.675293 70.9062 0.865723C71.321 1.05615 71.6785 1.34814 71.979 1.7417C72.2837 2.13525 72.5228 2.63037 72.6963 3.22705C72.874 3.82373 72.9629 4.53044 72.9629 5.34717C72.9629 6.1639 72.874 6.87061 72.6963 7.46729C72.5228 8.05973 72.2837 8.55062 71.979 8.93994C71.6785 9.32926 71.321 9.61914 70.9062 9.80957C70.4958 10 70.0535 10.0952 69.5796 10.0952C69.1014 10.0952 68.6571 10 68.2466 9.80957C67.8403 9.61914 67.4849 9.32926 67.1802 8.93994C66.8755 8.55062 66.6364 8.05762 66.4629 7.46094C66.2894 6.86426 66.2026 6.15967 66.2026 5.34717ZM67.4023 5.34717C67.4023 6.05811 67.4616 6.65479 67.5801 7.13721C67.6986 7.6154 67.8573 8.0026 68.0562 8.29883C68.255 8.59082 68.4857 8.80241 68.748 8.93359C69.0146 9.06055 69.2918 9.12402 69.5796 9.12402C69.8674 9.12402 70.1424 9.06055 70.4048 8.93359C70.6672 8.80241 70.8999 8.59082 71.103 8.29883C71.3062 8.0026 71.467 7.6154 71.5854 7.13721C71.7039 6.65479 71.7632 6.05811 71.7632 5.34717C71.7632 4.63623 71.7039 4.03955 71.5854 3.55713C71.467 3.07471 71.3062 2.68538 71.103 2.38916C70.8999 2.09294 70.665 1.88135 70.3984 1.75439C70.1361 1.62744 69.8631 1.56396 69.5796 1.56396C69.2918 1.56396 69.0146 1.62744 68.748 1.75439C68.4857 1.88135 68.255 2.09294 68.0562 2.38916C67.8573 2.68538 67.6986 3.07471 67.5801 3.55713C67.4616 4.03955 67.4023 4.63623 67.4023 5.34717ZM74.1689 6.59131V5.61377H77.3809V6.59131H74.1689ZM79.2471 3.06201L82.021 0.668945H82.9668V9.11768H84.7949V10H79.8057V9.11768H81.7988V2.76367C81.7988 2.58171 81.8052 2.38916 81.8179 2.18604L80.1611 3.60791C80.1061 3.65446 80.049 3.68408 79.9897 3.69678C79.9347 3.70947 79.884 3.71159 79.8374 3.70312C79.7909 3.69466 79.7464 3.67773 79.7041 3.65234C79.6618 3.62272 79.63 3.5931 79.6089 3.56348L79.2471 3.06201ZM86.3501 7.45459C86.3501 6.85791 86.5067 6.36491 86.8198 5.97559C87.133 5.58626 87.5794 5.30908 88.1592 5.14404C87.6683 4.96208 87.298 4.69124 87.0483 4.33154C86.8029 3.96761 86.6802 3.53385 86.6802 3.03027C86.6802 2.6875 86.7458 2.368 86.877 2.07178C87.0124 1.77132 87.2028 1.51107 87.4482 1.29102C87.6979 1.07096 87.9941 0.897461 88.3369 0.770508C88.6839 0.643555 89.069 0.580078 89.4922 0.580078C89.9111 0.580078 90.2941 0.643555 90.6411 0.770508C90.9881 0.897461 91.2843 1.07096 91.5298 1.29102C91.7795 1.51107 91.9699 1.77132 92.1011 2.07178C92.2365 2.368 92.3042 2.6875 92.3042 3.03027C92.3042 3.53385 92.1794 3.96761 91.9297 4.33154C91.68 4.69124 91.3118 4.96208 90.8252 5.14404C91.4049 5.30908 91.8514 5.58626 92.1646 5.97559C92.4777 6.36068 92.6343 6.85368 92.6343 7.45459C92.6343 7.86084 92.556 8.22689 92.3994 8.55273C92.2471 8.87858 92.0334 9.15788 91.7583 9.39062C91.4832 9.61914 91.1532 9.79476 90.7681 9.91748C90.383 10.0402 89.9577 10.1016 89.4922 10.1016C89.0267 10.1016 88.6014 10.0402 88.2163 9.91748C87.8312 9.79476 87.499 9.61914 87.2197 9.39062C86.9447 9.15788 86.731 8.87858 86.5786 8.55273C86.4263 8.22689 86.3501 7.86084 86.3501 7.45459ZM87.5498 7.43555C87.5498 7.69368 87.5942 7.93066 87.6831 8.14648C87.772 8.35807 87.8989 8.54215 88.064 8.69873C88.2332 8.85107 88.4364 8.96956 88.6733 9.0542C88.9146 9.13883 89.1875 9.18115 89.4922 9.18115C89.7969 9.18115 90.0677 9.13883 90.3047 9.0542C90.5459 8.96956 90.749 8.85107 90.9141 8.69873C91.0833 8.54215 91.2124 8.35807 91.3013 8.14648C91.3901 7.93066 91.4346 7.69368 91.4346 7.43555C91.4346 7.11393 91.3817 6.83887 91.2759 6.61035C91.1701 6.38184 91.0262 6.19775 90.8442 6.05811C90.6665 5.91423 90.4591 5.80843 90.2222 5.74072C89.9894 5.67301 89.7461 5.63916 89.4922 5.63916C89.2383 5.63916 88.9928 5.67301 88.7559 5.74072C88.5231 5.80843 88.3158 5.91423 88.1338 6.05811C87.9561 6.19775 87.8143 6.38184 87.7085 6.61035C87.6027 6.83887 87.5498 7.11393 87.5498 7.43555ZM87.8101 3.04932C87.8101 3.2609 87.8397 3.46826 87.8989 3.67139C87.9582 3.87028 88.0555 4.0459 88.1909 4.19824C88.3263 4.35059 88.4998 4.47331 88.7114 4.56641C88.9272 4.65951 89.1875 4.70605 89.4922 4.70605C89.7969 4.70605 90.055 4.65951 90.2666 4.56641C90.4824 4.47331 90.6559 4.35059 90.7871 4.19824C90.9225 4.0459 91.0199 3.87028 91.0791 3.67139C91.1426 3.47249 91.1743 3.26514 91.1743 3.04932C91.1743 2.8335 91.1383 2.63037 91.0664 2.43994C90.9945 2.24951 90.8887 2.08236 90.749 1.93848C90.6094 1.7946 90.4338 1.68245 90.2222 1.60205C90.0106 1.52165 89.7673 1.48145 89.4922 1.48145C89.2129 1.48145 88.9674 1.52165 88.7559 1.60205C88.5485 1.68245 88.3729 1.7946 88.229 1.93848C88.0894 2.08236 87.9836 2.24951 87.9116 2.43994C87.8439 2.63037 87.8101 2.8335 87.8101 3.04932ZM94.0752 9.28271C94.0752 9.16846 94.0942 9.06266 94.1323 8.96533C94.1746 8.868 94.2318 8.78337 94.3037 8.71143C94.3757 8.63525 94.4603 8.57601 94.5576 8.53369C94.6592 8.48714 94.7671 8.46387 94.8813 8.46387C94.9956 8.46387 95.1014 8.48714 95.1987 8.53369C95.2961 8.57601 95.3807 8.63525 95.4526 8.71143C95.5288 8.78337 95.5881 8.87012 95.6304 8.97168C95.6769 9.06901 95.7002 9.17269 95.7002 9.28271C95.7002 9.4012 95.6769 9.50911 95.6304 9.60645C95.5881 9.70378 95.5288 9.79053 95.4526 9.8667C95.3807 9.93864 95.2939 9.99365 95.1924 10.0317C95.0951 10.0741 94.9914 10.0952 94.8813 10.0952C94.7671 10.0952 94.6592 10.0741 94.5576 10.0317C94.4603 9.99365 94.3757 9.93864 94.3037 9.8667C94.2318 9.79053 94.1746 9.70378 94.1323 9.60645C94.0942 9.50911 94.0752 9.4012 94.0752 9.28271ZM94.0752 4.40771C94.0752 4.29346 94.0942 4.18766 94.1323 4.09033C94.1746 3.993 94.2318 3.90837 94.3037 3.83643C94.3757 3.76025 94.4603 3.70101 94.5576 3.65869C94.6592 3.61214 94.7671 3.58887 94.8813 3.58887C94.9956 3.58887 95.1014 3.61214 95.1987 3.65869C95.2961 3.70101 95.3807 3.76025 95.4526 3.83643C95.5288 3.90837 95.5881 3.99512 95.6304 4.09668C95.6769 4.19401 95.7002 4.29769 95.7002 4.40771C95.7002 4.5262 95.6769 4.63411 95.6304 4.73145C95.5881 4.82878 95.5288 4.91553 95.4526 4.9917C95.3807 5.06364 95.2939 5.12077 95.1924 5.16309C95.0951 5.20117 94.9914 5.22021 94.8813 5.22021C94.7671 5.22021 94.6592 5.20117 94.5576 5.16309C94.4603 5.12077 94.3757 5.06364 94.3037 4.9917C94.2318 4.91553 94.1746 4.82878 94.1323 4.73145C94.0942 4.63411 94.0752 4.5262 94.0752 4.40771ZM96.8999 5.34717C96.8999 4.53044 96.9867 3.82373 97.1602 3.22705C97.3337 2.63037 97.5728 2.13525 97.8774 1.7417C98.1821 1.34814 98.5376 1.05615 98.9438 0.865723C99.3543 0.675293 99.7987 0.580078 100.277 0.580078C100.751 0.580078 101.193 0.675293 101.604 0.865723C102.018 1.05615 102.376 1.34814 102.676 1.7417C102.981 2.13525 103.22 2.63037 103.394 3.22705C103.571 3.82373 103.66 4.53044 103.66 5.34717C103.66 6.1639 103.571 6.87061 103.394 7.46729C103.22 8.05973 102.981 8.55062 102.676 8.93994C102.376 9.32926 102.018 9.61914 101.604 9.80957C101.193 10 100.751 10.0952 100.277 10.0952C99.7987 10.0952 99.3543 10 98.9438 9.80957C98.5376 9.61914 98.1821 9.32926 97.8774 8.93994C97.5728 8.55062 97.3337 8.05762 97.1602 7.46094C96.9867 6.86426 96.8999 6.15967 96.8999 5.34717ZM98.0996 5.34717C98.0996 6.05811 98.1589 6.65479 98.2773 7.13721C98.3958 7.6154 98.5545 8.0026 98.7534 8.29883C98.9523 8.59082 99.1829 8.80241 99.4453 8.93359C99.7119 9.06055 99.9891 9.12402 100.277 9.12402C100.565 9.12402 100.84 9.06055 101.102 8.93359C101.364 8.80241 101.597 8.59082 101.8 8.29883C102.003 8.0026 102.164 7.6154 102.283 7.13721C102.401 6.65479 102.46 6.05811 102.46 5.34717C102.46 4.63623 102.401 4.03955 102.283 3.55713C102.164 3.07471 102.003 2.68538 101.8 2.38916C101.597 2.09294 101.362 1.88135 101.096 1.75439C100.833 1.62744 100.56 1.56396 100.277 1.56396C99.9891 1.56396 99.7119 1.62744 99.4453 1.75439C99.1829 1.88135 98.9523 2.09294 98.7534 2.38916C98.5545 2.68538 98.3958 3.07471 98.2773 3.55713C98.1589 4.03955 98.0996 4.63623 98.0996 5.34717ZM104.441 5.34717C104.441 4.53044 104.528 3.82373 104.701 3.22705C104.875 2.63037 105.114 2.13525 105.418 1.7417C105.723 1.34814 106.079 1.05615 106.485 0.865723C106.895 0.675293 107.34 0.580078 107.818 0.580078C108.292 0.580078 108.734 0.675293 109.145 0.865723C109.559 1.05615 109.917 1.34814 110.217 1.7417C110.522 2.13525 110.761 2.63037 110.935 3.22705C111.112 3.82373 111.201 4.53044 111.201 5.34717C111.201 6.1639 111.112 6.87061 110.935 7.46729C110.761 8.05973 110.522 8.55062 110.217 8.93994C109.917 9.32926 109.559 9.61914 109.145 9.80957C108.734 10 108.292 10.0952 107.818 10.0952C107.34 10.0952 106.895 10 106.485 9.80957C106.079 9.61914 105.723 9.32926 105.418 8.93994C105.114 8.55062 104.875 8.05762 104.701 7.46094C104.528 6.86426 104.441 6.15967 104.441 5.34717ZM105.641 5.34717C105.641 6.05811 105.7 6.65479 105.818 7.13721C105.937 7.6154 106.096 8.0026 106.294 8.29883C106.493 8.59082 106.724 8.80241 106.986 8.93359C107.253 9.06055 107.53 9.12402 107.818 9.12402C108.106 9.12402 108.381 9.06055 108.643 8.93359C108.905 8.80241 109.138 8.59082 109.341 8.29883C109.544 8.0026 109.705 7.6154 109.824 7.13721C109.942 6.65479 110.001 6.05811 110.001 5.34717C110.001 4.63623 109.942 4.03955 109.824 3.55713C109.705 3.07471 109.544 2.68538 109.341 2.38916C109.138 2.09294 108.903 1.88135 108.637 1.75439C108.374 1.62744 108.101 1.56396 107.818 1.56396C107.53 1.56396 107.253 1.62744 106.986 1.75439C106.724 1.88135 106.493 2.09294 106.294 2.38916C106.096 2.68538 105.937 3.07471 105.818 3.55713C105.7 4.03955 105.641 4.63623 105.641 5.34717Z" fill="black"/>
</svg>
