<svg width="106" height="13" viewBox="0 0 106 13" fill="none" xmlns="http://www.w3.org/2000/svg">
<path d="M0.628418 8.45459C0.628418 7.85791 0.784993 7.36491 1.09814 6.97559C1.4113 6.58626 1.85775 6.30908 2.4375 6.14404C1.94661 5.96208 1.57633 5.69124 1.32666 5.33154C1.08122 4.96761 0.958496 4.53385 0.958496 4.03027C0.958496 3.6875 1.02409 3.368 1.15527 3.07178C1.29069 2.77132 1.48112 2.51107 1.72656 2.29102C1.97624 2.07096 2.27246 1.89746 2.61523 1.77051C2.96224 1.64355 3.34733 1.58008 3.77051 1.58008C4.18945 1.58008 4.57243 1.64355 4.91943 1.77051C5.26644 1.89746 5.56266 2.07096 5.80811 2.29102C6.05778 2.51107 6.24821 2.77132 6.37939 3.07178C6.51481 3.368 6.58252 3.6875 6.58252 4.03027C6.58252 4.53385 6.45768 4.96761 6.20801 5.33154C5.95833 5.69124 5.59017 5.96208 5.10352 6.14404C5.68327 6.30908 6.12972 6.58626 6.44287 6.97559C6.75602 7.36068 6.9126 7.85368 6.9126 8.45459C6.9126 8.86084 6.83431 9.22689 6.67773 9.55273C6.52539 9.87858 6.31169 10.1579 6.03662 10.3906C5.76156 10.6191 5.43148 10.7948 5.04639 10.9175C4.6613 11.0402 4.236 11.1016 3.77051 11.1016C3.30501 11.1016 2.87972 11.0402 2.49463 10.9175C2.10954 10.7948 1.77734 10.6191 1.49805 10.3906C1.22298 10.1579 1.00928 9.87858 0.856934 9.55273C0.70459 9.22689 0.628418 8.86084 0.628418 8.45459ZM1.82812 8.43555C1.82812 8.69368 1.87256 8.93066 1.96143 9.14648C2.05029 9.35807 2.17725 9.54215 2.34229 9.69873C2.51156 9.85107 2.71468 9.96956 2.95166 10.0542C3.19287 10.1388 3.46582 10.1812 3.77051 10.1812C4.0752 10.1812 4.34603 10.1388 4.58301 10.0542C4.82422 9.96956 5.02734 9.85107 5.19238 9.69873C5.36165 9.54215 5.49072 9.35807 5.57959 9.14648C5.66846 8.93066 5.71289 8.69368 5.71289 8.43555C5.71289 8.11393 5.65999 7.83887 5.5542 7.61035C5.4484 7.38184 5.30452 7.19775 5.12256 7.05811C4.94482 6.91423 4.73747 6.80843 4.50049 6.74072C4.26774 6.67301 4.02441 6.63916 3.77051 6.63916C3.5166 6.63916 3.27116 6.67301 3.03418 6.74072C2.80143 6.80843 2.59408 6.91423 2.41211 7.05811C2.23438 7.19775 2.09261 7.38184 1.98682 7.61035C1.88102 7.83887 1.82812 8.11393 1.82812 8.43555ZM2.08838 4.04932C2.08838 4.2609 2.118 4.46826 2.17725 4.67139C2.23649 4.87028 2.33382 5.0459 2.46924 5.19824C2.60465 5.35059 2.77816 5.47331 2.98975 5.56641C3.20557 5.65951 3.46582 5.70605 3.77051 5.70605C4.0752 5.70605 4.33333 5.65951 4.54492 5.56641C4.76074 5.47331 4.93424 5.35059 5.06543 5.19824C5.20085 5.0459 5.29818 4.87028 5.35742 4.67139C5.4209 4.47249 5.45264 4.26514 5.45264 4.04932C5.45264 3.8335 5.41667 3.63037 5.34473 3.43994C5.27279 3.24951 5.16699 3.08236 5.02734 2.93848C4.8877 2.7946 4.71208 2.68245 4.50049 2.60205C4.2889 2.52165 4.04557 2.48145 3.77051 2.48145C3.49121 2.48145 3.24577 2.52165 3.03418 2.60205C2.82682 2.68245 2.6512 2.7946 2.50732 2.93848C2.36768 3.08236 2.26188 3.24951 2.18994 3.43994C2.12223 3.63037 2.08838 3.8335 2.08838 4.04932ZM11.4512 6.91211C11.4512 6.38737 11.4829 5.87321 11.5464 5.36963C11.6141 4.86605 11.7178 4.36882 11.8574 3.87793C11.9971 3.38704 12.1812 2.89827 12.4097 2.41162C12.6382 1.92074 12.9154 1.4235 13.2412 0.919922L13.7554 1.2373C13.8188 1.27962 13.8675 1.33675 13.9014 1.40869C13.9352 1.48063 13.9183 1.58219 13.8506 1.71338C13.3936 2.50049 13.0465 3.33203 12.8096 4.20801C12.5768 5.08398 12.4604 5.98535 12.4604 6.91211C12.4604 7.83887 12.5768 8.74023 12.8096 9.61621C13.0465 10.4922 13.3936 11.3237 13.8506 12.1108C13.9183 12.2463 13.9352 12.3499 13.9014 12.4219C13.8675 12.4938 13.8188 12.5509 13.7554 12.5933L13.2412 12.9043C12.9154 12.4049 12.6382 11.9098 12.4097 11.4189C12.1812 10.9323 11.9971 10.4414 11.8574 9.94629C11.7178 9.45117 11.6141 8.95394 11.5464 8.45459C11.4829 7.95524 11.4512 7.44108 11.4512 6.91211ZM15.3994 4.06201L18.1733 1.66895H19.1191V10.1177H20.9473V11H15.958V10.1177H17.9512V3.76367C17.9512 3.58171 17.9575 3.38916 17.9702 3.18604L16.3135 4.60791C16.2585 4.65446 16.2013 4.68408 16.1421 4.69678C16.0871 4.70947 16.0363 4.71159 15.9897 4.70312C15.9432 4.69466 15.8988 4.67773 15.8564 4.65234C15.8141 4.62272 15.7824 4.5931 15.7612 4.56348L15.3994 4.06201ZM22.9404 4.06201L25.7144 1.66895H26.6602V10.1177H28.4883V11H23.499V10.1177H25.4922V3.76367C25.4922 3.58171 25.4985 3.38916 25.5112 3.18604L23.8545 4.60791C23.7995 4.65446 23.7424 4.68408 23.6831 4.69678C23.6281 4.70947 23.5773 4.71159 23.5308 4.70312C23.4842 4.69466 23.4398 4.67773 23.3975 4.65234C23.3551 4.62272 23.3234 4.5931 23.3022 4.56348L22.9404 4.06201ZM30.4814 4.06201L33.2554 1.66895H34.2012V10.1177H36.0293V11H31.04V10.1177H33.0332V3.76367C33.0332 3.58171 33.0396 3.38916 33.0522 3.18604L31.3955 4.60791C31.3405 4.65446 31.2834 4.68408 31.2241 4.69678C31.1691 4.70947 31.1183 4.71159 31.0718 4.70312C31.0252 4.69466 30.9808 4.67773 30.9385 4.65234C30.8962 4.62272 30.8644 4.5931 30.8433 4.56348L30.4814 4.06201ZM37.3877 12.4155C37.375 12.3817 37.3729 12.3372 37.3813 12.2822C37.3898 12.2314 37.411 12.1743 37.4448 12.1108C37.9019 11.3237 38.2467 10.4922 38.4795 9.61621C38.7165 8.74023 38.835 7.83887 38.835 6.91211C38.835 5.98535 38.7165 5.08398 38.4795 4.20801C38.2425 3.33203 37.8976 2.50049 37.4448 1.71338C37.411 1.6499 37.3898 1.59277 37.3813 1.54199C37.3729 1.49121 37.375 1.44678 37.3877 1.40869C37.4004 1.37061 37.4194 1.33887 37.4448 1.31348C37.4744 1.28385 37.5062 1.25846 37.54 1.2373L38.0542 0.919922C38.38 1.4235 38.6551 1.92074 38.8794 2.41162C39.1079 2.89827 39.292 3.38704 39.4316 3.87793C39.5755 4.36882 39.6792 4.86605 39.7427 5.36963C39.8104 5.87321 39.8442 6.38737 39.8442 6.91211C39.8442 7.44108 39.8104 7.95524 39.7427 8.45459C39.6792 8.95394 39.5755 9.45117 39.4316 9.94629C39.292 10.4414 39.1079 10.9323 38.8794 11.4189C38.6551 11.9098 38.38 12.4049 38.0542 12.9043L37.54 12.5933C37.5062 12.5721 37.4744 12.5467 37.4448 12.5171C37.4194 12.4875 37.4004 12.4536 37.3877 12.4155ZM44.3574 11V10.6064C44.3574 10.526 44.3743 10.4414 44.4082 10.3525C44.4463 10.2637 44.5013 10.1833 44.5732 10.1113L47.5566 7.11523C47.8021 6.86556 48.0264 6.62435 48.2295 6.3916C48.4368 6.15885 48.6104 5.92611 48.75 5.69336C48.8939 5.45638 49.0039 5.21729 49.0801 4.97607C49.1605 4.73486 49.2007 4.47884 49.2007 4.20801C49.2007 3.93294 49.1562 3.69385 49.0674 3.49072C48.9827 3.28337 48.8664 3.1141 48.7183 2.98291C48.5701 2.84749 48.3924 2.74593 48.1851 2.67822C47.9819 2.61051 47.764 2.57666 47.5312 2.57666C47.2943 2.57666 47.0742 2.61263 46.8711 2.68457C46.6722 2.75228 46.4966 2.84749 46.3442 2.97021C46.1919 3.09294 46.0628 3.23893 45.957 3.4082C45.8555 3.57747 45.7814 3.76367 45.7349 3.9668C45.6841 4.11914 45.6143 4.2207 45.5254 4.27148C45.4365 4.31803 45.3117 4.33073 45.1509 4.30957L44.5479 4.20801C44.6071 3.78483 44.7235 3.41032 44.897 3.08447C45.0747 2.75439 45.2969 2.47933 45.5635 2.25928C45.8301 2.03499 46.1348 1.86572 46.4775 1.75146C46.8203 1.63721 47.1906 1.58008 47.5884 1.58008C47.9819 1.58008 48.3501 1.63932 48.6929 1.75781C49.0356 1.8763 49.3319 2.04769 49.5815 2.27197C49.8354 2.49202 50.0343 2.76286 50.1782 3.08447C50.3221 3.40609 50.394 3.77002 50.394 4.17627C50.394 4.52327 50.3411 4.84489 50.2354 5.14111C50.1296 5.43734 49.9878 5.72087 49.8101 5.9917C49.6323 6.2583 49.4271 6.52067 49.1943 6.77881C48.9658 7.03271 48.7204 7.28874 48.458 7.54688L46.0015 10.0605C46.175 10.014 46.3506 9.97591 46.5283 9.94629C46.7061 9.91667 46.8774 9.90186 47.0425 9.90186H50.1655C50.2925 9.90186 50.3919 9.93994 50.4639 10.0161C50.5358 10.0881 50.5718 10.1812 50.5718 10.2954V11H44.3574ZM51.8984 11V10.6064C51.8984 10.526 51.9154 10.4414 51.9492 10.3525C51.9873 10.2637 52.0423 10.1833 52.1143 10.1113L55.0977 7.11523C55.3431 6.86556 55.5674 6.62435 55.7705 6.3916C55.9779 6.15885 56.1514 5.92611 56.291 5.69336C56.4349 5.45638 56.5449 5.21729 56.6211 4.97607C56.7015 4.73486 56.7417 4.47884 56.7417 4.20801C56.7417 3.93294 56.6973 3.69385 56.6084 3.49072C56.5238 3.28337 56.4074 3.1141 56.2593 2.98291C56.1112 2.84749 55.9334 2.74593 55.7261 2.67822C55.5229 2.61051 55.305 2.57666 55.0723 2.57666C54.8353 2.57666 54.6152 2.61263 54.4121 2.68457C54.2132 2.75228 54.0376 2.84749 53.8853 2.97021C53.7329 3.09294 53.6038 3.23893 53.498 3.4082C53.3965 3.57747 53.3224 3.76367 53.2759 3.9668C53.2251 4.11914 53.1553 4.2207 53.0664 4.27148C52.9775 4.31803 52.8527 4.33073 52.6919 4.30957L52.0889 4.20801C52.1481 3.78483 52.2645 3.41032 52.438 3.08447C52.6157 2.75439 52.8379 2.47933 53.1045 2.25928C53.3711 2.03499 53.6758 1.86572 54.0186 1.75146C54.3613 1.63721 54.7316 1.58008 55.1294 1.58008C55.5229 1.58008 55.8911 1.63932 56.2339 1.75781C56.5767 1.8763 56.8729 2.04769 57.1226 2.27197C57.3765 2.49202 57.5754 2.76286 57.7192 3.08447C57.8631 3.40609 57.9351 3.77002 57.9351 4.17627C57.9351 4.52327 57.8822 4.84489 57.7764 5.14111C57.6706 5.43734 57.5288 5.72087 57.3511 5.9917C57.1733 6.2583 56.9681 6.52067 56.7354 6.77881C56.5068 7.03271 56.2614 7.28874 55.999 7.54688L53.5425 10.0605C53.716 10.014 53.8916 9.97591 54.0693 9.94629C54.2471 9.91667 54.4185 9.90186 54.5835 9.90186H57.7065C57.8335 9.90186 57.9329 9.93994 58.0049 10.0161C58.0768 10.0881 58.1128 10.1812 58.1128 10.2954V11H51.8984ZM59.4395 11V10.6064C59.4395 10.526 59.4564 10.4414 59.4902 10.3525C59.5283 10.2637 59.5833 10.1833 59.6553 10.1113L62.6387 7.11523C62.8841 6.86556 63.1084 6.62435 63.3115 6.3916C63.5189 6.15885 63.6924 5.92611 63.832 5.69336C63.9759 5.45638 64.0859 5.21729 64.1621 4.97607C64.2425 4.73486 64.2827 4.47884 64.2827 4.20801C64.2827 3.93294 64.2383 3.69385 64.1494 3.49072C64.0648 3.28337 63.9484 3.1141 63.8003 2.98291C63.6522 2.84749 63.4744 2.74593 63.2671 2.67822C63.064 2.61051 62.846 2.57666 62.6133 2.57666C62.3763 2.57666 62.1562 2.61263 61.9531 2.68457C61.7542 2.75228 61.5786 2.84749 61.4263 2.97021C61.2739 3.09294 61.1449 3.23893 61.0391 3.4082C60.9375 3.57747 60.8634 3.76367 60.8169 3.9668C60.7661 4.11914 60.6963 4.2207 60.6074 4.27148C60.5186 4.31803 60.3937 4.33073 60.2329 4.30957L59.6299 4.20801C59.6891 3.78483 59.8055 3.41032 59.979 3.08447C60.1567 2.75439 60.3789 2.47933 60.6455 2.25928C60.9121 2.03499 61.2168 1.86572 61.5596 1.75146C61.9023 1.63721 62.2726 1.58008 62.6704 1.58008C63.064 1.58008 63.4321 1.63932 63.7749 1.75781C64.1177 1.8763 64.4139 2.04769 64.6636 2.27197C64.9175 2.49202 65.1164 2.76286 65.2603 3.08447C65.4041 3.40609 65.4761 3.77002 65.4761 4.17627C65.4761 4.52327 65.4232 4.84489 65.3174 5.14111C65.2116 5.43734 65.0698 5.72087 64.8921 5.9917C64.7144 6.2583 64.5091 6.52067 64.2764 6.77881C64.0479 7.03271 63.8024 7.28874 63.54 7.54688L61.0835 10.0605C61.257 10.014 61.4326 9.97591 61.6104 9.94629C61.7881 9.91667 61.9595 9.90186 62.1245 9.90186H65.2476C65.3745 9.90186 65.474 9.93994 65.5459 10.0161C65.6178 10.0881 65.6538 10.1812 65.6538 10.2954V11H59.4395ZM67.1836 7.59131V6.61377H70.3955V7.59131H67.1836ZM71.7539 8.67041L72.2554 8.46729C72.3866 8.41227 72.5135 8.39746 72.6362 8.42285C72.759 8.44824 72.8478 8.51807 72.9028 8.63232C72.9578 8.75505 73.0277 8.90104 73.1123 9.07031C73.2012 9.23958 73.3175 9.40251 73.4614 9.55908C73.6095 9.71566 73.7979 9.84896 74.0264 9.95898C74.2549 10.0648 74.5448 10.1177 74.896 10.1177C75.2218 10.1177 75.5054 10.0648 75.7466 9.95898C75.992 9.85319 76.1951 9.71566 76.356 9.54639C76.521 9.37712 76.6437 9.1888 76.7241 8.98145C76.8088 8.76986 76.8511 8.5625 76.8511 8.35938C76.8511 8.1097 76.8172 7.88118 76.7495 7.67383C76.686 7.46647 76.5654 7.28662 76.3877 7.13428C76.21 6.98193 75.9666 6.86344 75.6577 6.77881C75.3488 6.68994 74.951 6.64551 74.4644 6.64551V5.80762C74.8621 5.80339 75.2007 5.76107 75.48 5.68066C75.7593 5.59603 75.9857 5.48177 76.1592 5.33789C76.3369 5.19401 76.466 5.02262 76.5464 4.82373C76.6268 4.62484 76.667 4.40479 76.667 4.16357C76.667 3.89697 76.6247 3.66423 76.54 3.46533C76.4554 3.26221 76.339 3.09717 76.1909 2.97021C76.047 2.83903 75.8735 2.7417 75.6704 2.67822C75.4673 2.61051 75.2493 2.57666 75.0166 2.57666C74.7839 2.57666 74.5659 2.61263 74.3628 2.68457C74.1639 2.75228 73.9862 2.84749 73.8296 2.97021C73.6772 3.09294 73.5482 3.23893 73.4424 3.4082C73.3408 3.57747 73.2668 3.76367 73.2202 3.9668C73.1652 4.11914 73.0954 4.2207 73.0107 4.27148C72.9261 4.31803 72.8034 4.33073 72.6426 4.30957L72.0396 4.20801C72.0988 3.78483 72.2152 3.41032 72.3887 3.08447C72.5622 2.75439 72.7822 2.47933 73.0488 2.25928C73.3154 2.03499 73.6201 1.86572 73.9629 1.75146C74.3099 1.63721 74.6823 1.58008 75.0801 1.58008C75.4736 1.58008 75.8376 1.63721 76.1719 1.75146C76.5062 1.86149 76.7939 2.0223 77.0352 2.23389C77.2764 2.44124 77.4626 2.69303 77.5938 2.98926C77.7292 3.28125 77.7969 3.6071 77.7969 3.9668C77.7969 4.26302 77.7588 4.52751 77.6826 4.76025C77.6107 4.98877 77.5028 5.19189 77.3589 5.36963C77.2192 5.54313 77.05 5.69124 76.8511 5.81396C76.6522 5.93669 76.4279 6.03402 76.1782 6.10596C76.7834 6.26676 77.2383 6.53548 77.543 6.91211C77.8519 7.28874 78.0063 7.76058 78.0063 8.32764C78.0063 8.75505 77.9238 9.14014 77.7588 9.48291C77.598 9.82568 77.3758 10.1177 77.0923 10.3589C76.813 10.6001 76.485 10.7842 76.1084 10.9111C75.736 11.0381 75.3361 11.1016 74.9087 11.1016C74.4136 11.1016 73.9904 11.0402 73.6392 10.9175C73.2879 10.7948 72.9896 10.6255 72.7441 10.4097C72.5029 10.1938 72.304 9.93783 72.1475 9.6416C71.9951 9.34115 71.8639 9.01742 71.7539 8.67041ZM79.2949 8.67041L79.7964 8.46729C79.9276 8.41227 80.0545 8.39746 80.1772 8.42285C80.3 8.44824 80.3888 8.51807 80.4438 8.63232C80.4989 8.75505 80.5687 8.90104 80.6533 9.07031C80.7422 9.23958 80.8586 9.40251 81.0024 9.55908C81.1506 9.71566 81.3389 9.84896 81.5674 9.95898C81.7959 10.0648 82.0858 10.1177 82.437 10.1177C82.7629 10.1177 83.0464 10.0648 83.2876 9.95898C83.533 9.85319 83.7362 9.71566 83.897 9.54639C84.062 9.37712 84.1847 9.1888 84.2651 8.98145C84.3498 8.76986 84.3921 8.5625 84.3921 8.35938C84.3921 8.1097 84.3582 7.88118 84.2905 7.67383C84.2271 7.46647 84.1064 7.28662 83.9287 7.13428C83.751 6.98193 83.5076 6.86344 83.1987 6.77881C82.8898 6.68994 82.492 6.64551 82.0054 6.64551V5.80762C82.4032 5.80339 82.7417 5.76107 83.021 5.68066C83.3003 5.59603 83.5267 5.48177 83.7002 5.33789C83.8779 5.19401 84.007 5.02262 84.0874 4.82373C84.1678 4.62484 84.208 4.40479 84.208 4.16357C84.208 3.89697 84.1657 3.66423 84.0811 3.46533C83.9964 3.26221 83.88 3.09717 83.7319 2.97021C83.5881 2.83903 83.4146 2.7417 83.2114 2.67822C83.0083 2.61051 82.7904 2.57666 82.5576 2.57666C82.3249 2.57666 82.1069 2.61263 81.9038 2.68457C81.7049 2.75228 81.5272 2.84749 81.3706 2.97021C81.2183 3.09294 81.0892 3.23893 80.9834 3.4082C80.8818 3.57747 80.8078 3.76367 80.7612 3.9668C80.7062 4.11914 80.6364 4.2207 80.5518 4.27148C80.4671 4.31803 80.3444 4.33073 80.1836 4.30957L79.5806 4.20801C79.6398 3.78483 79.7562 3.41032 79.9297 3.08447C80.1032 2.75439 80.3232 2.47933 80.5898 2.25928C80.8564 2.03499 81.1611 1.86572 81.5039 1.75146C81.8509 1.63721 82.2233 1.58008 82.6211 1.58008C83.0146 1.58008 83.3786 1.63721 83.7129 1.75146C84.0472 1.86149 84.335 2.0223 84.5762 2.23389C84.8174 2.44124 85.0036 2.69303 85.1348 2.98926C85.2702 3.28125 85.3379 3.6071 85.3379 3.9668C85.3379 4.26302 85.2998 4.52751 85.2236 4.76025C85.1517 4.98877 85.0438 5.19189 84.8999 5.36963C84.7603 5.54313 84.591 5.69124 84.3921 5.81396C84.1932 5.93669 83.9689 6.03402 83.7192 6.10596C84.3244 6.26676 84.7793 6.53548 85.084 6.91211C85.3929 7.28874 85.5474 7.76058 85.5474 8.32764C85.5474 8.75505 85.4648 9.14014 85.2998 9.48291C85.139 9.82568 84.9168 10.1177 84.6333 10.3589C84.354 10.6001 84.026 10.7842 83.6494 10.9111C83.277 11.0381 82.8771 11.1016 82.4497 11.1016C81.9546 11.1016 81.5314 11.0402 81.1802 10.9175C80.8289 10.7948 80.5306 10.6255 80.2852 10.4097C80.0439 10.1938 79.8451 9.93783 79.6885 9.6416C79.5361 9.34115 79.4049 9.01742 79.2949 8.67041ZM87.0898 7.59131V6.61377H90.3018V7.59131H87.0898ZM91.2539 7.69922L95.7798 1.68799H96.8589V7.64209H98.2681V8.30225C98.2681 8.36995 98.2469 8.4292 98.2046 8.47998C98.1665 8.52653 98.1051 8.5498 98.0205 8.5498H96.8589V11H95.8496V8.5498H91.7109C91.6263 8.5498 91.5522 8.52441 91.4888 8.47363C91.4253 8.42285 91.3851 8.36149 91.3682 8.28955L91.2539 7.69922ZM92.5044 7.64209H95.8496V3.79541C95.8496 3.68115 95.8517 3.55843 95.856 3.42725C95.8644 3.29606 95.8792 3.16276 95.9004 3.02734L92.5044 7.64209ZM98.7949 7.69922L103.321 1.68799H104.4V7.64209H105.809V8.30225C105.809 8.36995 105.788 8.4292 105.746 8.47998C105.708 8.52653 105.646 8.5498 105.562 8.5498H104.4V11H103.391V8.5498H99.252C99.1673 8.5498 99.0933 8.52441 99.0298 8.47363C98.9663 8.42285 98.9261 8.36149 98.9092 8.28955L98.7949 7.69922ZM100.045 7.64209H103.391V3.79541C103.391 3.68115 103.393 3.55843 103.397 3.42725C103.405 3.29606 103.42 3.16276 103.441 3.02734L100.045 7.64209Z" fill="black"/>
</svg>
