<svg width="153" height="19" viewBox="0 0 153 19" fill="none" xmlns="http://www.w3.org/2000/svg">
<path d="M0.0869141 10.7705C0.0869141 9.9502 0.192871 9.21191 0.404785 8.55566C0.623535 7.89258 0.937988 7.3252 1.34814 6.85352C1.7583 6.38184 2.25732 6.01953 2.84521 5.7666C3.43311 5.51367 4.10303 5.38721 4.85498 5.38721C5.60693 5.38721 6.27686 5.51367 6.86475 5.7666C7.45947 6.01953 7.9585 6.38184 8.36182 6.85352C8.77197 7.3252 9.08301 7.89258 9.29492 8.55566C9.50684 9.21191 9.61279 9.9502 9.61279 10.7705C9.61279 11.5908 9.50684 12.3291 9.29492 12.9854C9.08301 13.6416 8.77197 14.2056 8.36182 14.6772C7.9585 15.1489 7.45947 15.5112 6.86475 15.7642C6.27686 16.0103 5.60693 16.1333 4.85498 16.1333C4.10303 16.1333 3.43311 16.0103 2.84521 15.7642C2.25732 15.5112 1.7583 15.1489 1.34814 14.6772C0.937988 14.2056 0.623535 13.6416 0.404785 12.9854C0.192871 12.3291 0.0869141 11.5908 0.0869141 10.7705ZM1.12256 10.7705C1.12256 11.4678 1.20117 12.1001 1.3584 12.6675C1.51562 13.228 1.74805 13.71 2.05566 14.1133C2.37012 14.5098 2.75977 14.8174 3.22461 15.0361C3.68945 15.248 4.23291 15.354 4.85498 15.354C5.47705 15.354 6.02051 15.248 6.48535 15.0361C6.95703 14.8174 7.34668 14.5098 7.6543 14.1133C7.96875 13.71 8.20117 13.228 8.35156 12.6675C8.50879 12.1001 8.5874 11.4678 8.5874 10.7705C8.5874 10.0801 8.50879 9.45117 8.35156 8.88379C8.20117 8.31641 7.96875 7.83105 7.6543 7.42773C7.34668 7.02441 6.96045 6.7168 6.49561 6.50488C6.03076 6.28613 5.48389 6.17676 4.85498 6.17676C4.23291 6.17676 3.68945 6.28613 3.22461 6.50488C2.75977 6.7168 2.37012 7.02441 2.05566 7.42773C1.74805 7.83105 1.51562 8.31641 1.3584 8.88379C1.20117 9.45117 1.12256 10.0801 1.12256 10.7705ZM12.4326 16V5.55127H12.9658C13.082 5.55127 13.1641 5.5752 13.2119 5.62305C13.2666 5.6709 13.3008 5.75635 13.3145 5.87939L13.3862 8.07373C13.5503 7.6499 13.7349 7.27051 13.9399 6.93555C14.145 6.60059 14.3809 6.32031 14.6475 6.09473C14.9209 5.8623 15.2217 5.68457 15.5498 5.56152C15.8848 5.43848 16.2573 5.37695 16.6675 5.37695C16.8862 5.37695 17.0981 5.39746 17.3032 5.43848C17.5151 5.47266 17.6997 5.5376 17.8569 5.6333L17.7749 6.33057C17.7407 6.43994 17.6758 6.49463 17.5801 6.49463C17.498 6.49463 17.3682 6.4707 17.1904 6.42285C17.0195 6.375 16.7939 6.35107 16.5137 6.35107C16.1104 6.35107 15.7515 6.41602 15.437 6.5459C15.1226 6.66895 14.8423 6.8501 14.5962 7.08936C14.3501 7.32861 14.1348 7.62939 13.9502 7.9917C13.7656 8.354 13.5947 8.771 13.4375 9.24268V16H12.4326ZM18.6772 10.8013C18.6772 10.0356 18.7764 9.32471 18.9746 8.66846C19.1729 8.00537 19.4634 7.43115 19.8462 6.9458C20.2358 6.46045 20.7109 6.07764 21.2715 5.79736C21.832 5.51709 22.4814 5.37695 23.2197 5.37695C23.9238 5.37695 24.5356 5.51025 25.0552 5.77686C25.5747 6.03662 26.0259 6.41602 26.4087 6.91504V0.72168H27.4136V16H26.8599C26.6753 16 26.5728 15.9077 26.5522 15.7231L26.4395 14.0825C25.9746 14.7114 25.4346 15.2104 24.8193 15.5796C24.2041 15.9487 23.5137 16.1333 22.748 16.1333C21.4629 16.1333 20.4614 15.689 19.7437 14.8003C19.0327 13.9116 18.6772 12.5786 18.6772 10.8013ZM19.7026 10.8013C19.7026 12.353 19.9863 13.4946 20.5537 14.2261C21.1279 14.9575 21.9551 15.3232 23.0352 15.3232C23.7188 15.3232 24.3408 15.1455 24.9014 14.79C25.4688 14.4346 25.9712 13.9355 26.4087 13.293V7.80713C26.0122 7.20557 25.5713 6.78174 25.0859 6.53564C24.6006 6.28955 24.0435 6.1665 23.4146 6.1665C22.7993 6.1665 22.2593 6.2793 21.7944 6.50488C21.3364 6.72363 20.9502 7.03809 20.6357 7.44824C20.3281 7.8584 20.0957 8.35059 19.9385 8.9248C19.7812 9.49219 19.7026 10.1177 19.7026 10.8013ZM30.2129 10.5654C30.2129 9.81348 30.3188 9.12305 30.5308 8.49414C30.7495 7.8584 31.0605 7.31152 31.4639 6.85352C31.8672 6.39551 32.3594 6.03662 32.9404 5.77686C33.5215 5.51709 34.1846 5.38721 34.9297 5.38721C35.5176 5.38721 36.0645 5.48975 36.5703 5.69482C37.0762 5.89307 37.5137 6.18701 37.8828 6.57666C38.252 6.96631 38.5425 7.44482 38.7544 8.01221C38.9731 8.57959 39.0825 9.229 39.0825 9.96045C39.0825 10.1177 39.0586 10.2236 39.0107 10.2783C38.9697 10.333 38.9014 10.3604 38.8057 10.3604H31.2075V10.5654C31.2075 11.3516 31.2964 12.042 31.4741 12.6367C31.6587 13.2246 31.9185 13.7202 32.2534 14.1235C32.5884 14.5269 32.9951 14.8311 33.4736 15.0361C33.9521 15.2344 34.4854 15.3335 35.0732 15.3335C35.5996 15.3335 36.0542 15.2788 36.437 15.1694C36.8198 15.0532 37.1411 14.9233 37.4009 14.7798C37.6675 14.6362 37.876 14.5063 38.0264 14.3901C38.1836 14.2739 38.2964 14.2158 38.3647 14.2158C38.4536 14.2158 38.5254 14.25 38.5801 14.3184L38.8467 14.6567C38.6758 14.8687 38.4536 15.0669 38.1802 15.2515C37.9067 15.4292 37.5991 15.583 37.2573 15.7129C36.9155 15.8428 36.5498 15.9453 36.1602 16.0205C35.7773 16.0957 35.3877 16.1333 34.9912 16.1333C34.2803 16.1333 33.6309 16.0103 33.043 15.7642C32.4551 15.5181 31.9492 15.1558 31.5254 14.6772C31.1084 14.1987 30.7837 13.6177 30.5513 12.9341C30.3257 12.2437 30.2129 11.4541 30.2129 10.5654ZM31.2485 9.72461H38.1802C38.1802 9.16406 38.1016 8.66162 37.9443 8.21729C37.7871 7.77295 37.5649 7.39697 37.2778 7.08936C36.9907 6.78174 36.6489 6.5459 36.2524 6.38184C35.856 6.21094 35.4185 6.12549 34.9399 6.12549C34.3999 6.12549 33.918 6.21094 33.4941 6.38184C33.0703 6.55273 32.7012 6.79541 32.3867 7.10986C32.0723 7.42432 31.8193 7.80371 31.6279 8.24805C31.4365 8.68555 31.3101 9.17773 31.2485 9.72461ZM41.7998 16V5.55127H42.333C42.4492 5.55127 42.5312 5.5752 42.5791 5.62305C42.6338 5.6709 42.668 5.75635 42.6816 5.87939L42.7534 8.07373C42.9175 7.6499 43.1021 7.27051 43.3071 6.93555C43.5122 6.60059 43.748 6.32031 44.0146 6.09473C44.2881 5.8623 44.5889 5.68457 44.917 5.56152C45.252 5.43848 45.6245 5.37695 46.0347 5.37695C46.2534 5.37695 46.4653 5.39746 46.6704 5.43848C46.8823 5.47266 47.0669 5.5376 47.2241 5.6333L47.1421 6.33057C47.1079 6.43994 47.043 6.49463 46.9473 6.49463C46.8652 6.49463 46.7354 6.4707 46.5576 6.42285C46.3867 6.375 46.1611 6.35107 45.8809 6.35107C45.4775 6.35107 45.1187 6.41602 44.8042 6.5459C44.4897 6.66895 44.2095 6.8501 43.9634 7.08936C43.7173 7.32861 43.502 7.62939 43.3174 7.9917C43.1328 8.354 42.9619 8.771 42.8047 9.24268V16H41.7998ZM48.7622 10.2373C48.7622 9.06836 48.9673 7.98486 49.3774 6.98682C49.7944 5.98193 50.3584 5.11377 51.0693 4.38232C51.7871 3.64404 52.6211 3.06641 53.5713 2.64941C54.5215 2.23242 55.54 2.02393 56.627 2.02393C57.5635 2.02393 58.4624 2.1709 59.3237 2.46484C60.1851 2.75195 60.9473 3.18604 61.6104 3.76709C62.2734 4.34131 62.7998 5.05566 63.1895 5.91016C63.5859 6.76465 63.7842 7.75586 63.7842 8.88379C63.7842 9.64941 63.6816 10.3467 63.4766 10.9756C63.2783 11.6045 63.0015 12.1445 62.646 12.5957C62.2905 13.0469 61.8735 13.3989 61.395 13.6519C60.9233 13.8979 60.4175 14.021 59.8774 14.021C59.2622 14.021 58.7974 13.8604 58.4829 13.5391C58.1753 13.2109 58.0146 12.7427 58.001 12.1343C57.6113 12.7837 57.167 13.2554 56.668 13.5493C56.1758 13.8364 55.6426 13.98 55.0684 13.98C54.6787 13.98 54.3403 13.9116 54.0532 13.7749C53.7661 13.6382 53.5269 13.4536 53.3354 13.2212C53.1509 12.9819 53.0107 12.7017 52.915 12.3804C52.8193 12.0591 52.7715 11.7104 52.7715 11.3345C52.7715 10.7397 52.8843 10.145 53.1099 9.55029C53.3423 8.94873 53.6772 8.40869 54.1147 7.93018C54.5522 7.45166 55.0889 7.06201 55.7246 6.76123C56.3604 6.46045 57.085 6.31006 57.8984 6.31006C58.2676 6.31006 58.6128 6.34082 58.9341 6.40234C59.2622 6.46387 59.5562 6.55615 59.8159 6.6792L58.8623 10.3193C58.6914 10.9619 58.6094 11.4849 58.6162 11.8882C58.623 12.2847 58.688 12.5923 58.811 12.811C58.9409 13.0298 59.1118 13.1768 59.3237 13.252C59.5425 13.3271 59.7749 13.3647 60.021 13.3647C60.4175 13.3647 60.7969 13.2622 61.1592 13.0571C61.5215 12.8452 61.8428 12.5444 62.123 12.1548C62.4033 11.7651 62.6255 11.2935 62.7896 10.7397C62.9604 10.186 63.0459 9.56738 63.0459 8.88379C63.0459 7.84473 62.875 6.93896 62.5332 6.1665C62.1914 5.39404 61.7266 4.75146 61.1387 4.23877C60.5576 3.72607 59.8774 3.34668 59.0981 3.10059C58.3257 2.84766 57.502 2.72119 56.627 2.72119C55.6699 2.72119 54.7607 2.90576 53.8994 3.2749C53.0449 3.64404 52.293 4.16357 51.6436 4.8335C50.9941 5.49658 50.478 6.28955 50.0952 7.2124C49.7192 8.12842 49.5312 9.13672 49.5312 10.2373C49.5312 11.4746 49.7261 12.5649 50.1157 13.5083C50.5122 14.4517 51.0488 15.2412 51.7256 15.877C52.4092 16.5059 53.2021 16.981 54.1045 17.3022C55.0137 17.6304 55.981 17.7944 57.0063 17.7944C58.0454 17.7944 58.9922 17.6748 59.8467 17.4355C60.7012 17.1963 61.4805 16.8511 62.1846 16.3999C62.2666 16.3452 62.3418 16.3281 62.4102 16.3486C62.4785 16.3691 62.5298 16.417 62.564 16.4922L62.728 16.8818C61.9419 17.4014 61.0771 17.8013 60.1338 18.0815C59.1973 18.3618 58.1548 18.502 57.0063 18.502C55.8511 18.502 54.771 18.3174 53.7661 17.9482C52.7681 17.5791 51.8965 17.0425 51.1514 16.3384C50.4131 15.6343 49.8286 14.7695 49.3979 13.7441C48.9741 12.7188 48.7622 11.5498 48.7622 10.2373ZM53.5918 11.314C53.5918 11.5942 53.626 11.8574 53.6943 12.1035C53.7627 12.3428 53.8652 12.5513 54.002 12.729C54.1455 12.8999 54.3198 13.0366 54.5249 13.1392C54.7368 13.2417 54.9829 13.293 55.2632 13.293C55.5161 13.293 55.7759 13.252 56.0425 13.1699C56.3091 13.0811 56.5654 12.9272 56.8115 12.7085C57.0645 12.4897 57.3003 12.1924 57.519 11.8164C57.7378 11.4404 57.9189 10.9619 58.0625 10.3809L58.9033 7.13037C58.7324 7.08252 58.5581 7.04492 58.3804 7.01758C58.2026 6.99023 57.9941 6.97656 57.7549 6.97656C57.126 6.97656 56.5552 7.10645 56.0425 7.36621C55.5298 7.61914 55.0923 7.9541 54.73 8.37109C54.3677 8.78125 54.0874 9.24268 53.8892 9.75537C53.6909 10.2681 53.5918 10.7876 53.5918 11.314ZM66.6143 16V0.72168H67.6191V7.36621C68.0771 6.75098 68.6104 6.26904 69.2188 5.92041C69.8271 5.56494 70.5347 5.38721 71.3413 5.38721C71.9702 5.38721 72.5308 5.50342 73.0229 5.73584C73.522 5.96143 73.9458 6.29297 74.2944 6.73047C74.6431 7.16113 74.9062 7.69434 75.084 8.33008C75.2686 8.96582 75.3608 9.68359 75.3608 10.4834C75.3608 11.3311 75.2583 12.1035 75.0532 12.8008C74.855 13.498 74.561 14.0928 74.1714 14.585C73.7817 15.0771 73.3066 15.46 72.7461 15.7334C72.1855 16 71.5464 16.1333 70.8286 16.1333C70.0835 16.1333 69.4478 15.9932 68.9214 15.7129C68.395 15.4258 67.9438 15.0054 67.5679 14.4517L67.5063 15.7334C67.4858 15.9111 67.3901 16 67.2192 16H66.6143ZM67.6191 13.7236C68.0225 14.3252 68.4668 14.749 68.9521 14.9951C69.4375 15.2344 69.9878 15.354 70.603 15.354C71.2251 15.354 71.7686 15.2412 72.2334 15.0156C72.6982 14.79 73.0879 14.4688 73.4023 14.0518C73.7168 13.6348 73.9492 13.1289 74.0996 12.5342C74.2568 11.9395 74.3354 11.2695 74.3354 10.5244C74.3354 9.08203 74.0483 7.99854 73.4741 7.27393C72.8999 6.54932 72.0933 6.18701 71.0542 6.18701C70.3022 6.18701 69.6494 6.36475 69.0957 6.72021C68.5488 7.07568 68.0566 7.57129 67.6191 8.20703V13.7236ZM78.0679 12.2266V5.55127H79.0728V12.2266C79.0728 13.2041 79.2949 13.9731 79.7393 14.5337C80.1904 15.0942 80.874 15.3745 81.79 15.3745C82.4668 15.3745 83.0991 15.2002 83.687 14.8516C84.2817 14.5029 84.8115 14.021 85.2764 13.4058V5.55127H86.2812V16H85.7275C85.5498 16 85.4473 15.9077 85.4199 15.7231L85.3276 14.1748C84.8423 14.7764 84.2817 15.2583 83.646 15.6206C83.0171 15.9829 82.3164 16.1641 81.5439 16.1641C80.9629 16.1641 80.4536 16.0752 80.0161 15.8975C79.5854 15.7129 79.2266 15.4497 78.9395 15.1079C78.6523 14.7661 78.4336 14.3525 78.2832 13.8672C78.1396 13.3818 78.0679 12.835 78.0679 12.2266ZM89.4497 10.1963V9.34521H94.3306V10.1963H89.4497ZM96.8633 10.7705C96.8633 9.9502 96.9692 9.21191 97.1812 8.55566C97.3999 7.89258 97.7144 7.3252 98.1245 6.85352C98.5347 6.38184 99.0337 6.01953 99.6216 5.7666C100.209 5.51367 100.879 5.38721 101.631 5.38721C102.383 5.38721 103.053 5.51367 103.641 5.7666C104.236 6.01953 104.735 6.38184 105.138 6.85352C105.548 7.3252 105.859 7.89258 106.071 8.55566C106.283 9.21191 106.389 9.9502 106.389 10.7705C106.389 11.5908 106.283 12.3291 106.071 12.9854C105.859 13.6416 105.548 14.2056 105.138 14.6772C104.735 15.1489 104.236 15.5112 103.641 15.7642C103.053 16.0103 102.383 16.1333 101.631 16.1333C100.879 16.1333 100.209 16.0103 99.6216 15.7642C99.0337 15.5112 98.5347 15.1489 98.1245 14.6772C97.7144 14.2056 97.3999 13.6416 97.1812 12.9854C96.9692 12.3291 96.8633 11.5908 96.8633 10.7705ZM97.8989 10.7705C97.8989 11.4678 97.9775 12.1001 98.1348 12.6675C98.292 13.228 98.5244 13.71 98.832 14.1133C99.1465 14.5098 99.5361 14.8174 100.001 15.0361C100.466 15.248 101.009 15.354 101.631 15.354C102.253 15.354 102.797 15.248 103.262 15.0361C103.733 14.8174 104.123 14.5098 104.431 14.1133C104.745 13.71 104.978 13.228 105.128 12.6675C105.285 12.1001 105.364 11.4678 105.364 10.7705C105.364 10.0801 105.285 9.45117 105.128 8.88379C104.978 8.31641 104.745 7.83105 104.431 7.42773C104.123 7.02441 103.737 6.7168 103.272 6.50488C102.807 6.28613 102.26 6.17676 101.631 6.17676C101.009 6.17676 100.466 6.28613 100.001 6.50488C99.5361 6.7168 99.1465 7.02441 98.832 7.42773C98.5244 7.83105 98.292 8.31641 98.1348 8.88379C97.9775 9.45117 97.8989 10.0801 97.8989 10.7705ZM109.209 16V5.55127H109.763C109.94 5.55127 110.043 5.64014 110.07 5.81787L110.163 7.38672C110.648 6.77832 111.205 6.29297 111.834 5.93066C112.463 5.56836 113.17 5.38721 113.957 5.38721C114.531 5.38721 115.037 5.47949 115.474 5.66406C115.912 5.8418 116.274 6.10156 116.561 6.44336C116.848 6.78516 117.063 7.19873 117.207 7.68408C117.357 8.16943 117.433 8.71631 117.433 9.32471V16H116.417V9.32471C116.417 8.34717 116.192 7.58154 115.741 7.02783C115.296 6.46729 114.616 6.18701 113.7 6.18701C113.017 6.18701 112.381 6.36133 111.793 6.70996C111.205 7.05176 110.679 7.53027 110.214 8.14551V16H109.209ZM120.119 10.5654C120.119 9.81348 120.225 9.12305 120.437 8.49414C120.656 7.8584 120.967 7.31152 121.37 6.85352C121.773 6.39551 122.266 6.03662 122.847 5.77686C123.428 5.51709 124.091 5.38721 124.836 5.38721C125.424 5.38721 125.971 5.48975 126.477 5.69482C126.982 5.89307 127.42 6.18701 127.789 6.57666C128.158 6.96631 128.449 7.44482 128.661 8.01221C128.879 8.57959 128.989 9.229 128.989 9.96045C128.989 10.1177 128.965 10.2236 128.917 10.2783C128.876 10.333 128.808 10.3604 128.712 10.3604H121.114V10.5654C121.114 11.3516 121.203 12.042 121.38 12.6367C121.565 13.2246 121.825 13.7202 122.16 14.1235C122.495 14.5269 122.901 14.8311 123.38 15.0361C123.858 15.2344 124.392 15.3335 124.979 15.3335C125.506 15.3335 125.96 15.2788 126.343 15.1694C126.726 15.0532 127.047 14.9233 127.307 14.7798C127.574 14.6362 127.782 14.5063 127.933 14.3901C128.09 14.2739 128.203 14.2158 128.271 14.2158C128.36 14.2158 128.432 14.25 128.486 14.3184L128.753 14.6567C128.582 14.8687 128.36 15.0669 128.086 15.2515C127.813 15.4292 127.505 15.583 127.164 15.7129C126.822 15.8428 126.456 15.9453 126.066 16.0205C125.684 16.0957 125.294 16.1333 124.897 16.1333C124.187 16.1333 123.537 16.0103 122.949 15.7642C122.361 15.5181 121.855 15.1558 121.432 14.6772C121.015 14.1987 120.69 13.6177 120.458 12.9341C120.232 12.2437 120.119 11.4541 120.119 10.5654ZM121.155 9.72461H128.086C128.086 9.16406 128.008 8.66162 127.851 8.21729C127.693 7.77295 127.471 7.39697 127.184 7.08936C126.897 6.78174 126.555 6.5459 126.159 6.38184C125.762 6.21094 125.325 6.12549 124.846 6.12549C124.306 6.12549 123.824 6.21094 123.4 6.38184C122.977 6.55273 122.607 6.79541 122.293 7.10986C121.979 7.42432 121.726 7.80371 121.534 8.24805C121.343 8.68555 121.216 9.17773 121.155 9.72461ZM131.46 15.1899C131.46 15.0601 131.484 14.937 131.532 14.8208C131.586 14.6978 131.655 14.5918 131.737 14.5029C131.826 14.4141 131.928 14.3457 132.044 14.2979C132.161 14.2432 132.291 14.2158 132.434 14.2158C132.564 14.2158 132.687 14.2432 132.803 14.2979C132.926 14.3457 133.029 14.4141 133.111 14.5029C133.2 14.5918 133.271 14.6978 133.326 14.8208C133.381 14.937 133.408 15.0601 133.408 15.1899C133.408 15.3267 133.381 15.4531 133.326 15.5693C133.271 15.6855 133.2 15.7881 133.111 15.877C133.029 15.9658 132.926 16.0342 132.803 16.082C132.687 16.1299 132.564 16.1538 132.434 16.1538C132.161 16.1538 131.928 16.0615 131.737 15.877C131.552 15.6924 131.46 15.4634 131.46 15.1899ZM136.607 16V5.55127H137.141C137.257 5.55127 137.339 5.5752 137.387 5.62305C137.441 5.6709 137.476 5.75635 137.489 5.87939L137.561 8.07373C137.725 7.6499 137.91 7.27051 138.115 6.93555C138.32 6.60059 138.556 6.32031 138.822 6.09473C139.096 5.8623 139.396 5.68457 139.725 5.56152C140.06 5.43848 140.432 5.37695 140.842 5.37695C141.061 5.37695 141.273 5.39746 141.478 5.43848C141.69 5.47266 141.875 5.5376 142.032 5.6333L141.95 6.33057C141.916 6.43994 141.851 6.49463 141.755 6.49463C141.673 6.49463 141.543 6.4707 141.365 6.42285C141.194 6.375 140.969 6.35107 140.688 6.35107C140.285 6.35107 139.926 6.41602 139.612 6.5459C139.297 6.66895 139.017 6.8501 138.771 7.08936C138.525 7.32861 138.31 7.62939 138.125 7.9917C137.94 8.354 137.77 8.771 137.612 9.24268V16H136.607ZM143.918 12.2266V5.55127H144.923V12.2266C144.923 13.2041 145.146 13.9731 145.59 14.5337C146.041 15.0942 146.725 15.3745 147.641 15.3745C148.317 15.3745 148.95 15.2002 149.538 14.8516C150.132 14.5029 150.662 14.021 151.127 13.4058V5.55127H152.132V16H151.578C151.4 16 151.298 15.9077 151.271 15.7231L151.178 14.1748C150.693 14.7764 150.132 15.2583 149.497 15.6206C148.868 15.9829 148.167 16.1641 147.395 16.1641C146.813 16.1641 146.304 16.0752 145.867 15.8975C145.436 15.7129 145.077 15.4497 144.79 15.1079C144.503 14.7661 144.284 14.3525 144.134 13.8672C143.99 13.3818 143.918 12.835 143.918 12.2266Z" fill="white"/>
</svg>
