<svg width="183" height="20" viewBox="0 0 183 20" fill="none" xmlns="http://www.w3.org/2000/svg">
<path d="M0.168945 10.3452V9.57617H4.68066V4.83887H5.50098V9.57617H10.0229V10.3452H5.50098V15.103H4.68066V10.3452H0.168945ZM12.4941 2.78809V2.14209H22.3892V2.59326C22.3892 2.70947 22.3721 2.81201 22.3379 2.90088C22.3105 2.98975 22.2798 3.06494 22.2456 3.12646L15.4473 16.6206C15.3926 16.73 15.3174 16.8223 15.2217 16.8975C15.126 16.9658 14.9995 17 14.8423 17H14.1553L21.0151 3.55713C21.063 3.46143 21.1143 3.37598 21.1689 3.30078C21.2236 3.21875 21.2783 3.14014 21.333 3.06494H12.7812C12.7061 3.06494 12.6377 3.0376 12.5762 2.98291C12.5215 2.92822 12.4941 2.86328 12.4941 2.78809ZM30.2231 10.3862C30.2231 9.56592 30.271 8.76953 30.3667 7.99707C30.4692 7.22461 30.6333 6.45557 30.8589 5.68994C31.0913 4.92432 31.3887 4.15527 31.751 3.38281C32.1201 2.60352 32.5747 1.80029 33.1147 0.973145L33.5557 1.25C33.6104 1.28418 33.6548 1.33887 33.689 1.41406C33.7231 1.48926 33.7026 1.58496 33.6274 1.70117C32.7866 3.04102 32.1543 4.43213 31.7305 5.87451C31.3135 7.31006 31.105 8.81396 31.105 10.3862C31.105 11.9517 31.3169 13.4556 31.7407 14.8979C32.1646 16.3335 32.7935 17.7212 33.6274 19.061C33.6958 19.1772 33.7129 19.2729 33.6787 19.3481C33.6514 19.4233 33.6104 19.478 33.5557 19.5122L33.1147 19.7788C32.5747 18.9517 32.1201 18.1519 31.751 17.3794C31.3887 16.6069 31.0913 15.8379 30.8589 15.0723C30.6333 14.3066 30.4692 13.541 30.3667 12.7754C30.271 12.0029 30.2231 11.2065 30.2231 10.3862ZM36.6216 5.87451L40.918 2.08057H41.7075V16.2207H44.9478V17H37.2778V16.2207H40.6924V4.17236C40.6924 3.93311 40.7026 3.68018 40.7231 3.41357L37.4521 6.32568C37.3564 6.40771 37.2573 6.43848 37.1548 6.41797C37.0591 6.39746 36.9839 6.35645 36.9292 6.29492L36.6216 5.87451ZM48.8032 5.87451L53.0996 2.08057H53.8892V16.2207H57.1294V17H49.4595V16.2207H52.874V4.17236C52.874 3.93311 52.8843 3.68018 52.9048 3.41357L49.6338 6.32568C49.5381 6.40771 49.439 6.43848 49.3364 6.41797C49.2407 6.39746 49.1655 6.35645 49.1108 6.29492L48.8032 5.87451ZM60.9849 5.87451L65.2812 2.08057H66.0708V16.2207H69.311V17H61.6411V16.2207H65.0557V4.17236C65.0557 3.93311 65.0659 3.68018 65.0864 3.41357L61.8154 6.32568C61.7197 6.40771 61.6206 6.43848 61.5181 6.41797C61.4224 6.39746 61.3472 6.35645 61.2925 6.29492L60.9849 5.87451ZM71.9463 19.5122C71.8916 19.478 71.8472 19.4233 71.813 19.3481C71.7856 19.2729 71.8062 19.1772 71.8745 19.061C72.7153 17.7212 73.3477 16.3335 73.7715 14.8979C74.1953 13.4556 74.4072 11.9517 74.4072 10.3862C74.4072 8.81396 74.1953 7.31006 73.7715 5.87451C73.3477 4.43213 72.7153 3.04102 71.8745 1.70117C71.8062 1.58496 71.7856 1.48926 71.813 1.41406C71.8472 1.33887 71.8916 1.28418 71.9463 1.25L72.3872 0.973145C72.9272 1.80029 73.3784 2.60352 73.7407 3.38281C74.1099 4.15527 74.4072 4.92432 74.6328 5.68994C74.8652 6.45557 75.0327 7.22461 75.1353 7.99707C75.2378 8.76953 75.2891 9.56592 75.2891 10.3862C75.2891 11.2065 75.2378 12.0029 75.1353 12.7754C75.0327 13.541 74.8652 14.3066 74.6328 15.0723C74.4072 15.8379 74.1099 16.6069 73.7407 17.3794C73.3784 18.1587 72.9272 18.9585 72.3872 19.7788L71.9463 19.5122ZM83.3486 17V16.6411C83.3486 16.5659 83.3657 16.4873 83.3999 16.4053C83.4409 16.3232 83.4922 16.2549 83.5537 16.2002L88.6294 11.063C89.0464 10.6392 89.4326 10.229 89.7881 9.83252C90.1504 9.4292 90.4614 9.02588 90.7212 8.62256C90.9878 8.2124 91.1929 7.79541 91.3364 7.37158C91.4868 6.94775 91.562 6.49316 91.562 6.00781C91.562 5.46094 91.4697 4.98584 91.2852 4.58252C91.1006 4.1792 90.8579 3.84766 90.5571 3.58789C90.2563 3.32813 89.9043 3.13672 89.501 3.01367C89.1045 2.89062 88.6943 2.8291 88.2705 2.8291C87.7988 2.8291 87.3647 2.90088 86.9683 3.04443C86.5786 3.18799 86.23 3.38623 85.9224 3.63916C85.6216 3.89209 85.3687 4.19629 85.1636 4.55176C84.9653 4.90723 84.8286 5.29346 84.7534 5.71045C84.7056 5.86768 84.6406 5.97021 84.5586 6.01807C84.4766 6.06592 84.3672 6.08301 84.2305 6.06934L83.7178 5.9873C83.8066 5.35156 83.981 4.78418 84.2407 4.28516C84.5005 3.78613 84.8286 3.36572 85.2251 3.02393C85.6216 2.68213 86.083 2.42236 86.6094 2.24463C87.1357 2.06689 87.7031 1.97803 88.3115 1.97803C88.8789 1.97803 89.4189 2.06006 89.9316 2.22412C90.4512 2.38818 90.9058 2.6377 91.2954 2.97266C91.6919 3.30078 92.0063 3.71436 92.2388 4.21338C92.4712 4.7124 92.5874 5.30029 92.5874 5.97705C92.5874 6.5376 92.502 7.05713 92.3311 7.53564C92.1602 8.01416 91.9277 8.47559 91.6338 8.91992C91.3398 9.35742 90.998 9.78467 90.6084 10.2017C90.2188 10.6187 89.812 11.0425 89.3882 11.4731L84.7329 16.2207C84.9585 16.166 85.1909 16.125 85.4302 16.0977C85.6694 16.0703 85.9121 16.0566 86.1582 16.0566H92.5771C92.6865 16.0566 92.772 16.0908 92.8335 16.1592C92.9019 16.2207 92.936 16.3062 92.936 16.4155V17H83.3486ZM95.5303 17V16.6411C95.5303 16.5659 95.5474 16.4873 95.5815 16.4053C95.6226 16.3232 95.6738 16.2549 95.7354 16.2002L100.811 11.063C101.228 10.6392 101.614 10.229 101.97 9.83252C102.332 9.4292 102.643 9.02588 102.903 8.62256C103.169 8.2124 103.375 7.79541 103.518 7.37158C103.668 6.94775 103.744 6.49316 103.744 6.00781C103.744 5.46094 103.651 4.98584 103.467 4.58252C103.282 4.1792 103.04 3.84766 102.739 3.58789C102.438 3.32813 102.086 3.13672 101.683 3.01367C101.286 2.89062 100.876 2.8291 100.452 2.8291C99.9805 2.8291 99.5464 2.90088 99.1499 3.04443C98.7603 3.18799 98.4116 3.38623 98.104 3.63916C97.8032 3.89209 97.5503 4.19629 97.3452 4.55176C97.147 4.90723 97.0103 5.29346 96.9351 5.71045C96.8872 5.86768 96.8223 5.97021 96.7402 6.01807C96.6582 6.06592 96.5488 6.08301 96.4121 6.06934L95.8994 5.9873C95.9883 5.35156 96.1626 4.78418 96.4224 4.28516C96.6821 3.78613 97.0103 3.36572 97.4067 3.02393C97.8032 2.68213 98.2646 2.42236 98.791 2.24463C99.3174 2.06689 99.8848 1.97803 100.493 1.97803C101.061 1.97803 101.601 2.06006 102.113 2.22412C102.633 2.38818 103.087 2.6377 103.477 2.97266C103.874 3.30078 104.188 3.71436 104.42 4.21338C104.653 4.7124 104.769 5.30029 104.769 5.97705C104.769 6.5376 104.684 7.05713 104.513 7.53564C104.342 8.01416 104.109 8.47559 103.815 8.91992C103.521 9.35742 103.18 9.78467 102.79 10.2017C102.4 10.6187 101.994 11.0425 101.57 11.4731L96.9146 16.2207C97.1401 16.166 97.3726 16.125 97.6118 16.0977C97.8511 16.0703 98.0938 16.0566 98.3398 16.0566H104.759C104.868 16.0566 104.954 16.0908 105.015 16.1592C105.083 16.2207 105.118 16.3062 105.118 16.4155V17H95.5303ZM107.712 17V16.6411C107.712 16.5659 107.729 16.4873 107.763 16.4053C107.804 16.3232 107.855 16.2549 107.917 16.2002L112.993 11.063C113.41 10.6392 113.796 10.229 114.151 9.83252C114.514 9.4292 114.825 9.02588 115.084 8.62256C115.351 8.2124 115.556 7.79541 115.7 7.37158C115.85 6.94775 115.925 6.49316 115.925 6.00781C115.925 5.46094 115.833 4.98584 115.648 4.58252C115.464 4.1792 115.221 3.84766 114.92 3.58789C114.62 3.32813 114.268 3.13672 113.864 3.01367C113.468 2.89062 113.058 2.8291 112.634 2.8291C112.162 2.8291 111.728 2.90088 111.332 3.04443C110.942 3.18799 110.593 3.38623 110.286 3.63916C109.985 3.89209 109.732 4.19629 109.527 4.55176C109.329 4.90723 109.192 5.29346 109.117 5.71045C109.069 5.86768 109.004 5.97021 108.922 6.01807C108.84 6.06592 108.73 6.08301 108.594 6.06934L108.081 5.9873C108.17 5.35156 108.344 4.78418 108.604 4.28516C108.864 3.78613 109.192 3.36572 109.588 3.02393C109.985 2.68213 110.446 2.42236 110.973 2.24463C111.499 2.06689 112.066 1.97803 112.675 1.97803C113.242 1.97803 113.782 2.06006 114.295 2.22412C114.814 2.38818 115.269 2.6377 115.659 2.97266C116.055 3.30078 116.37 3.71436 116.602 4.21338C116.834 4.7124 116.951 5.30029 116.951 5.97705C116.951 6.5376 116.865 7.05713 116.694 7.53564C116.523 8.01416 116.291 8.47559 115.997 8.91992C115.703 9.35742 115.361 9.78467 114.972 10.2017C114.582 10.6187 114.175 11.0425 113.751 11.4731L109.096 16.2207C109.322 16.166 109.554 16.125 109.793 16.0977C110.033 16.0703 110.275 16.0566 110.521 16.0566H116.94C117.05 16.0566 117.135 16.0908 117.197 16.1592C117.265 16.2207 117.299 16.3062 117.299 16.4155V17H107.712ZM120.129 11.1963V10.3452H125.01V11.1963H120.129ZM127.615 13.3701L128.015 13.1958C128.124 13.1479 128.24 13.1343 128.363 13.1548C128.486 13.1753 128.575 13.2573 128.63 13.4009C128.664 13.4829 128.708 13.6128 128.763 13.7905C128.825 13.9683 128.91 14.1665 129.02 14.3853C129.136 14.604 129.283 14.8262 129.46 15.0518C129.638 15.2773 129.86 15.4858 130.127 15.6772C130.4 15.8687 130.725 16.0225 131.101 16.1387C131.484 16.2549 131.935 16.313 132.455 16.313C133.083 16.313 133.634 16.2104 134.105 16.0054C134.577 15.7935 134.97 15.5269 135.285 15.2056C135.606 14.8774 135.845 14.5117 136.002 14.1084C136.16 13.7051 136.238 13.3154 136.238 12.9395C136.238 12.4814 136.167 12.0576 136.023 11.668C135.879 11.2715 135.64 10.9331 135.305 10.6528C134.97 10.3726 134.526 10.1504 133.972 9.98633C133.425 9.81543 132.752 9.72998 131.952 9.72998V9.01221C132.595 8.99854 133.159 8.91309 133.644 8.75586C134.136 8.59863 134.546 8.3833 134.875 8.10986C135.203 7.83643 135.452 7.51172 135.623 7.13574C135.794 6.75293 135.879 6.33594 135.879 5.88477C135.879 5.3584 135.791 4.90381 135.613 4.521C135.435 4.13135 135.199 3.81006 134.905 3.55713C134.611 3.3042 134.27 3.11963 133.88 3.00342C133.49 2.88721 133.08 2.8291 132.649 2.8291C132.178 2.8291 131.744 2.90088 131.347 3.04443C130.951 3.18799 130.599 3.38623 130.291 3.63916C129.99 3.89209 129.737 4.19629 129.532 4.55176C129.327 4.90723 129.187 5.29346 129.112 5.71045C129.071 5.86768 129.009 5.97021 128.927 6.01807C128.852 6.06592 128.746 6.08301 128.609 6.06934L128.097 5.9873C128.186 5.35156 128.36 4.78418 128.62 4.28516C128.879 3.78613 129.208 3.36572 129.604 3.02393C130.007 2.68213 130.469 2.42236 130.988 2.24463C131.515 2.06689 132.082 1.97803 132.69 1.97803C133.258 1.97803 133.794 2.05664 134.3 2.21387C134.806 2.37109 135.247 2.60693 135.623 2.92139C136.006 3.23584 136.307 3.62891 136.525 4.10059C136.751 4.56543 136.864 5.10547 136.864 5.7207C136.864 6.20605 136.789 6.64355 136.638 7.0332C136.488 7.42285 136.279 7.76465 136.013 8.05859C135.753 8.35254 135.445 8.59863 135.09 8.79688C134.734 8.99512 134.345 9.14551 133.921 9.24805C135.015 9.45312 135.842 9.87695 136.402 10.5195C136.963 11.1553 137.243 11.9551 137.243 12.9189C137.243 13.5273 137.12 14.0913 136.874 14.6108C136.628 15.1304 136.29 15.5815 135.859 15.9644C135.435 16.3403 134.933 16.6343 134.352 16.8462C133.771 17.0581 133.142 17.1641 132.465 17.1641C131.617 17.1641 130.91 17.0513 130.342 16.8257C129.782 16.6001 129.317 16.3062 128.948 15.9438C128.585 15.5747 128.302 15.1646 128.097 14.7134C127.898 14.2622 127.738 13.8145 127.615 13.3701ZM139.796 13.3701L140.196 13.1958C140.306 13.1479 140.422 13.1343 140.545 13.1548C140.668 13.1753 140.757 13.2573 140.812 13.4009C140.846 13.4829 140.89 13.6128 140.945 13.7905C141.006 13.9683 141.092 14.1665 141.201 14.3853C141.317 14.604 141.464 14.8262 141.642 15.0518C141.82 15.2773 142.042 15.4858 142.309 15.6772C142.582 15.8687 142.907 16.0225 143.283 16.1387C143.666 16.2549 144.117 16.313 144.636 16.313C145.265 16.313 145.815 16.2104 146.287 16.0054C146.759 15.7935 147.152 15.5269 147.466 15.2056C147.788 14.8774 148.027 14.5117 148.184 14.1084C148.341 13.7051 148.42 13.3154 148.42 12.9395C148.42 12.4814 148.348 12.0576 148.205 11.668C148.061 11.2715 147.822 10.9331 147.487 10.6528C147.152 10.3726 146.708 10.1504 146.154 9.98633C145.607 9.81543 144.934 9.72998 144.134 9.72998V9.01221C144.776 8.99854 145.34 8.91309 145.826 8.75586C146.318 8.59863 146.728 8.3833 147.056 8.10986C147.384 7.83643 147.634 7.51172 147.805 7.13574C147.976 6.75293 148.061 6.33594 148.061 5.88477C148.061 5.3584 147.972 4.90381 147.794 4.521C147.617 4.13135 147.381 3.81006 147.087 3.55713C146.793 3.3042 146.451 3.11963 146.062 3.00342C145.672 2.88721 145.262 2.8291 144.831 2.8291C144.359 2.8291 143.925 2.90088 143.529 3.04443C143.132 3.18799 142.78 3.38623 142.473 3.63916C142.172 3.89209 141.919 4.19629 141.714 4.55176C141.509 4.90723 141.369 5.29346 141.293 5.71045C141.252 5.86768 141.191 5.97021 141.109 6.01807C141.034 6.06592 140.928 6.08301 140.791 6.06934L140.278 5.9873C140.367 5.35156 140.542 4.78418 140.801 4.28516C141.061 3.78613 141.389 3.36572 141.786 3.02393C142.189 2.68213 142.65 2.42236 143.17 2.24463C143.696 2.06689 144.264 1.97803 144.872 1.97803C145.439 1.97803 145.976 2.05664 146.482 2.21387C146.988 2.37109 147.429 2.60693 147.805 2.92139C148.188 3.23584 148.488 3.62891 148.707 4.10059C148.933 4.56543 149.045 5.10547 149.045 5.7207C149.045 6.20605 148.97 6.64355 148.82 7.0332C148.669 7.42285 148.461 7.76465 148.194 8.05859C147.935 8.35254 147.627 8.59863 147.271 8.79688C146.916 8.99512 146.526 9.14551 146.103 9.24805C147.196 9.45312 148.023 9.87695 148.584 10.5195C149.145 11.1553 149.425 11.9551 149.425 12.9189C149.425 13.5273 149.302 14.0913 149.056 14.6108C148.81 15.1304 148.471 15.5815 148.041 15.9644C147.617 16.3403 147.114 16.6343 146.533 16.8462C145.952 17.0581 145.323 17.1641 144.646 17.1641C143.799 17.1641 143.091 17.0513 142.524 16.8257C141.963 16.6001 141.499 16.3062 141.129 15.9438C140.767 15.5747 140.483 15.1646 140.278 14.7134C140.08 14.2622 139.919 13.8145 139.796 13.3701ZM152.265 11.1963V10.3452H157.146V11.1963H152.265ZM159.022 11.9961L166.487 2.12158H167.379V11.9346H170.097V12.4883C170.097 12.5635 170.073 12.625 170.025 12.6729C169.984 12.7139 169.916 12.7344 169.82 12.7344H167.379V17H166.498V12.7344H159.474C159.371 12.7344 159.289 12.7139 159.228 12.6729C159.173 12.625 159.135 12.5635 159.115 12.4883L159.022 11.9961ZM160.109 11.9346H166.498V4.16211C166.498 4.0459 166.501 3.91602 166.508 3.77246C166.521 3.62891 166.535 3.48535 166.549 3.3418L160.109 11.9346ZM171.204 11.9961L178.669 2.12158H179.561V11.9346H182.278V12.4883C182.278 12.5635 182.254 12.625 182.207 12.6729C182.166 12.7139 182.097 12.7344 182.001 12.7344H179.561V17H178.679V12.7344H171.655C171.553 12.7344 171.471 12.7139 171.409 12.6729C171.354 12.625 171.317 12.5635 171.296 12.4883L171.204 11.9961ZM172.291 11.9346H178.679V4.16211C178.679 4.0459 178.683 3.91602 178.689 3.77246C178.703 3.62891 178.717 3.48535 178.73 3.3418L172.291 11.9346Z" fill="white"/>
</svg>
