<svg width="31" height="22" viewBox="0 0 31 22" fill="none" xmlns="http://www.w3.org/2000/svg">
<path d="M20.8612 10.7472L30.5023 2.10121C30.951 1.69338 30.9917 1.00006 30.5839 0.543295C30.1761 0.0946813 29.4828 0.0538982 29.026 0.461729L15.7307 12.3948L13.1369 10.0784C13.1288 10.0702 13.1206 10.0621 13.1206 10.0539C13.0635 9.99681 13.0064 9.94787 12.9412 9.89893L2.38651 0.453572C1.92974 0.0457418 1.23643 0.0865247 0.828603 0.543295C0.420772 1.00006 0.461555 1.69338 0.918325 2.10121L10.6736 10.8206L0.959108 19.9152C0.518651 20.3312 0.494182 21.0245 0.910169 21.4732C1.1304 21.7015 1.42403 21.8239 1.71767 21.8239C1.98684 21.8239 2.25601 21.726 2.46808 21.5303L12.3294 12.3051L15.0048 14.695C15.2169 14.8826 15.4779 14.9723 15.7389 14.9723C15.9999 14.9723 16.2691 14.8745 16.473 14.6869L19.2218 12.2236L29.026 21.5384C29.2381 21.7423 29.5154 21.8402 29.7846 21.8402C30.0782 21.8402 30.3637 21.726 30.5839 21.4976C30.9999 21.0572 30.9836 20.3557 30.5431 19.9397L20.8612 10.7472Z" fill="white"/>
</svg>
