<svg width="40" height="30" viewBox="0 0 40 30" fill="none" xmlns="http://www.w3.org/2000/svg">
<path d="M34.6085 0H4.82055C2.1615 0 0 2.1615 0 4.82055V25.1794C0 27.8385 2.1615 30 4.82055 30H34.6003C37.2594 30 39.4209 27.8385 39.4209 25.1794V4.82871C39.429 2.16966 37.2675 0 34.6085 0ZM37.2268 25.1794C37.2268 26.6232 36.0522 27.7977 34.6085 27.7977H4.82055C3.37684 27.7977 2.20228 26.6232 2.20228 25.1794V4.82871C2.20228 3.38499 3.37684 2.21044 4.82055 2.21044H34.6003C36.044 2.21044 37.2186 3.38499 37.2186 4.82871V25.1794H37.2268Z" fill="white"/>
</svg>
